<svg width="1439" height="156" viewBox="0 0 1439 156" fill="none" xmlns="http://www.w3.org/2000/svg">
<path d="M-1 78.1642V0.328308H719H1439V78.1642V156H719H-1V78.1642Z" fill="#96642C"/>
<path d="M18.1652 152.777C22.8857 115.212 54.2692 77.629 28.8293 40.0763C24.1144 26.8305 19.5183 13.6407 18.3648 0.386085C51.6198 10.9952 29.9627 22.2975 41.0187 33.2261C42.7193 62.1239 66.2305 91.0922 38.8189 119.928C32.2348 131.096 28.0155 142.284 28.0551 153.476C20.5587 156.207 13.4172 154.071 18.165 152.779L18.1652 152.777ZM116.954 145.13C108.013 106.912 91.608 68.6141 117.936 30.435C118.195 20.3996 114.001 10.3454 121.412 0.328316C122.538 35.5612 130.627 66.8111 113.474 100.226C132.152 120.284 114.314 131.19 136.953 147.535C140.31 154.291 101.749 153.461 117 147.359L117.155 146.244L116.954 145.13ZM146.48 155.012C133.182 101.126 135.365 53.728 145.96 4.1441C187.548 2.94682 148.996 14.1953 160.761 17.5711C125.298 65.1209 176.811 109.621 165.723 153.744C163.086 154.537 155.253 155.43 146.48 155.013L146.48 155.012ZM180.351 152.959C193.305 140.983 186.803 128.928 174.332 116.994C156.88 89.803 155.612 62.5179 169.129 35.3057C173.252 24.9049 169.059 14.156 184.764 4.00113C199.58 9.69714 181.996 16.723 182.393 22.9514C178.033 30.4969 174.655 38.0665 178.05 45.6251C193.097 31.2893 183.099 16.7504 204.825 2.4809C200.589 22.9183 180.497 43.293 181.107 63.7553C177.342 86.1705 192.635 108.563 216.545 130.807C220.144 137.461 217.926 149.109 209.547 152.65C204.02 141.972 219.385 131.206 199.616 120.619C162.271 9.65397 165.669 70.2048 200.575 139.695C199.365 143.008 208.392 153.394 180.351 152.959V152.959ZM163.825 78.8543C155.128 79.4065 172.958 79.4979 163.825 78.8543V78.8543ZM259.14 155.228C271.585 131.582 266.948 107.879 277.191 84.2207C212.804 65.9658 237.487 46.1085 247.055 27.1086C271.583 20.1612 223.61 4.43987 281.376 3.04673C294.119 15.2095 260.708 27.8612 302.244 39.6965C335.921 47.4369 340.986 55.9316 338.221 64.3707C324.513 81.5275 348.605 103.131 369.946 122.377C378.794 130.904 377.089 139.471 384.466 147.998C387.627 152.184 350.992 155.651 359.001 149.241C353.574 140.265 367.15 131.052 350.34 122.221C292.337 121.543 319.65 133.345 304.411 137.999C293.821 143.732 302.369 151.49 270.434 155.836L263.997 155.621L259.147 155.23L259.14 155.228ZM295.466 153.111C313.973 147.65 297.005 132.775 343.107 132.981C352.388 138.646 355.853 149.347 340.892 152.039C337.121 148.46 365.576 136.938 320.511 138.679C314.495 143.002 322.295 148.596 295.467 153.111H295.466ZM386.034 153.948C405.664 130.691 373.509 107.477 350.982 84.397C341.389 71.2884 341.859 58.1129 348.283 44.9866C344.697 39.9142 253.117 32.4921 338.988 32.3766C365.736 25.361 334.447 17.5476 342.323 10.183C364.239 -1.56048 318.526 20.4564 370.424 17.2013C373.149 13.6038 388.538 0.226704 380.835 10.3913C347.136 43.2891 332.053 76.798 387.892 109.519C398.18 121.38 398.211 133.306 405.166 145.19C383.163 147.454 409.408 152.119 386.035 153.949L386.034 153.948ZM401.872 154.328C424.135 146.685 402.336 138.473 430.076 131.101C438.778 126.856 405.546 114.466 425.312 114.66C442.869 127.616 437.299 140.909 412.533 153.654C411.23 154.25 406.158 154.199 401.872 154.327L401.872 154.328ZM430.267 155.164C451.855 147.228 442.8 138.788 462.231 130.961C448.467 104.112 392.062 77.251 396.728 52.1155C405.771 43.1541 372.473 33.8153 408.684 25.1704C416.969 18.3482 395.938 9.76433 423.787 4.35413C466.483 -3.26375 434.755 11.3755 432.924 14.1529C409.247 35.6843 427.681 49.9817 423.447 79.0972C474.013 99.1339 485.103 119.657 475.971 138.824C468.776 142.634 462.508 156.428 430.265 155.163L430.267 155.164ZM537.876 153.188C554.4 128.078 561.122 102.764 533.878 77.7111C525.716 84.2052 480.62 83.5731 487.795 77.2529C463.779 63.6681 438.995 49.505 475.319 35.8813C493.709 26.8447 522.055 17.9678 526.473 8.66156C514.655 11.173 485.205 22.7298 503.091 14.1505C493.411 10.6333 548.032 -1.74808 543.262 7.51925C537.312 10.3471 516.579 21.482 537.738 19.6036C545.097 13.5819 535.68 -1.61004 627.803 2.82599C636.674 13.6695 640.725 24.5638 666.722 35.1157C665.818 42.5253 672.657 52.6491 631.028 58.2241C607.851 52.8468 634.094 44.3587 594.452 40.4742C541.898 50.3305 582.324 55.4354 574.267 72.7943C533.579 101.764 641.849 126.896 591.277 153.911C580.238 147.869 586.334 157.098 573.1 151.273C564.238 142.829 586.171 134.25 560.064 125.939C554.643 135.001 581.352 144.605 550.94 153.399C534.904 155.752 537.492 155.516 537.876 153.185L537.876 153.188ZM543.517 153.954C534.82 154.506 552.65 154.598 543.517 153.954V153.954ZM563.29 98.204C564.143 85.9151 550.537 70.2217 541.639 56.2122C523.803 58.7653 520.941 71.2968 494.567 62.5111C457.779 52.6807 499.552 42.338 527.29 32.9201C541.007 29.0961 506.894 25.6565 510.44 31.3509C487.674 41.5109 463.14 52.0543 479.978 62.5521C463.015 69.1156 538.922 72.8143 539.724 66.1882C558.17 72.7149 547.509 79.9557 556.634 86.7646C560.368 94.5457 562.231 102.345 559.524 110.134C563.992 106.174 561.684 102.178 563.29 98.2028L563.29 98.204ZM509.04 70.7024C501.137 68.385 519.759 71.9584 509.04 70.7024V70.7024ZM603.186 153.111C582.216 149.503 640.131 141.608 632.177 149.688C637.22 151.989 617.265 159.482 603.186 153.111ZM640.198 155.62C649.558 144.646 617.968 134.002 600.536 123.363C583.392 100.781 570.423 77.9296 600.896 55.4059C619.716 56.9584 615.105 70.3388 642.048 64.2311C638.44 58.2165 704.894 57.4855 683.707 64.3381C699.451 90.8834 692.184 117.507 703.41 144.071C685.269 117.467 697.105 90.7171 673.75 64.1435C633.677 62.1089 647.097 77.5796 611.706 69.3193C576.235 81.1327 592.788 93.7634 593.093 105.945C602.772 122.178 651.472 138.104 642.095 154.443L640.198 155.62ZM712.102 147.562C700.235 127.627 695.856 86.0811 697.968 55.2386C717.711 37.1181 728.317 18.7896 714.066 0.571127C748.567 3.06206 719.858 17.6041 729.097 6.96157C724.945 1.72954 740.008 1.34705 736.247 6.71301C732.961 25.4441 742.085 44.211 725.207 62.8947C719.439 70.9926 734.581 78.9708 721.85 87.0481C718.307 109.407 736.298 131.749 734.372 154.115C700.715 157.77 717.506 149.052 712.103 147.562L712.102 147.562ZM729.088 145.13C724.221 140.727 729.122 134.903 719.748 131.381C722.582 135.96 714.725 140.698 729.088 145.13ZM766.492 155.163C753.997 131.414 761.023 107.048 765.13 77.7806C780.079 56.6652 797.432 35.4027 772.046 14.2927C764.125 10.8196 775.65 -3.43529 783.005 6.27169C789.746 18.2466 794.431 30.2439 796.827 42.2404C797.323 49.7451 796.27 57.2493 795.397 64.7532C830.3 56.564 805.305 47.1434 812.659 38.455C804.332 27.8401 802.583 17.1866 791.707 6.62134C817.92 -1.93543 823.336 11.8683 822.979 14.8573C848.882 65.7 785.612 109.258 810.958 155.163C748.88 126.008 811.848 93.7148 805.801 66.1925C768.429 76.8235 795.066 86.2754 773.486 103.502C770.286 115.684 772.548 127.89 782.315 140.033C749.92 145.477 821.315 150.076 766.492 155.167L766.492 155.163ZM882.327 155.315C877.036 142.458 847.57 129.792 854.709 116.863C847.473 79.6809 880.482 42.5903 881.96 5.42066C909.484 1.34158 886.718 14.7026 888.791 17.2456C882.151 49.1766 854.487 88.3864 866.717 124.163C857.53 132.997 906.415 138.809 896.788 147.511C894.599 150.068 917.598 154.319 882.327 155.317L882.327 155.315ZM911.619 154.555C926.507 141.102 897.661 127.794 877.414 114.628C861.12 96.9127 874.133 79.1124 878.002 61.3682C895.366 71.3169 877.719 81.5079 883.917 91.5652C883.565 103.383 903.591 115.03 920.859 126.628C927.549 136.025 927.032 145.499 916.721 154.864L913.354 154.9L911.619 154.555ZM933.792 155.538C941.96 136.391 938.873 117.045 902.326 98.2431C888.074 70.6205 892.053 42.8458 923.998 15.3753C921.986 11.9411 916.945 0.464529 964.51 3.84796C960.998 17.2573 933.626 30.4113 920.868 43.7115C909.31 89.5829 914.257 88.0019 946.927 101.927C953.969 112.901 963.439 123.988 963.55 134.931C959.374 141.907 985.402 151.172 936.261 155.276L935.385 155.531L933.793 155.541L933.792 155.538ZM978.764 134.564C983.213 97.3127 933.12 59.9393 978.95 22.8092C978.978 17.811 975.369 4.53449 990.181 4.84006C977.23 38.6926 960.32 72.6241 983.251 106.471C988.424 122.859 992.344 139.256 990.481 155.656C959.352 149.009 989.556 141.547 978.764 134.563V134.564ZM1083.58 154.555C1083.34 143.45 1089.81 132.35 1101.27 121.317C1183.33 124.926 1112.33 136.239 1128.03 143.283C1126.74 146.569 1141.87 156.989 1083.58 154.557V154.555ZM1147.46 154.555C1153.77 150.687 1161.8 137.807 1161.71 148.076C1161.27 150.305 1158.33 152.615 1147.46 154.555ZM1236.2 153.643C1230.94 114.576 1294.8 75.473 1247.69 36.4761C1229.58 24.7916 1232.53 12.969 1236.8 1.17934C1267.5 15.3126 1239.97 30.6086 1262.41 34.7065C1285.28 66.0233 1269.78 97.4495 1265.6 128.806C1250.22 137.053 1259.07 148.095 1238.1 154.78L1236.2 153.643ZM1257.24 152.123C1268.82 141.962 1298.65 131.928 1279.86 121.633C1274.77 96.9536 1279.92 72.2684 1280.84 47.589C1284.76 81.2651 1284.68 115.039 1287.54 148.66C1287.99 150.836 1250.29 158.694 1257.24 152.126L1257.24 152.123ZM1280.37 113.819C1271.68 114.372 1289.51 114.463 1280.37 113.819V113.819ZM1327.08 148.94C1342.11 146.535 1312.27 141.182 1315.93 146.922C1327.32 126.283 1347.68 105.438 1314.7 84.9056C1305.95 66.9158 1321.94 48.9096 1318.67 30.8918C1325.11 21.2304 1307.09 10.7895 1332.63 1.603C1401 -3.78166 1466.16 5.57901 1427.35 12.261C1442.42 55.5238 1437.85 98.826 1434.34 142.11C1445.63 148.232 1415.33 156.63 1353.05 155.654C1329.11 154.579 1319.44 151.445 1327.08 148.938L1327.08 148.94ZM1394.98 70.2586C1403.35 50.8553 1397.54 31.4046 1382.78 12.052C1347.64 19.5231 1375.98 28.5231 1362.93 36.587C1363.88 48.6042 1374.28 60.5954 1390.41 72.4797C1393.16 71.762 1394.55 71.0317 1394.98 70.2573V70.2586ZM1382.93 67.3955C1379.27 65.6071 1389.35 67.9591 1382.93 67.3955V67.3955ZM1432.22 38.1122C1423.52 38.6645 1441.35 38.7559 1432.22 38.1122V38.1122ZM1432.22 36.896C1423.52 37.4483 1441.35 37.5397 1432.22 36.896V36.896ZM899.168 154.048C895.505 152.26 905.581 154.612 899.168 154.048V154.048ZM600.171 149.077C585.547 145.735 614.57 148.982 600.171 149.077V149.077ZM1038.72 144.389C1002.09 145.258 1054.46 138.011 1013.2 140.661C1006.92 110.791 991.281 80.9186 994.952 51.0369C997.999 43.2418 1007.11 35.3697 1005.4 27.6381C1049.32 21.8528 1033.8 34.7246 1044.04 38.0149C1047.89 45.6958 1059.25 53.2522 1074.99 60.722C1114.72 78.091 1128.99 43.0192 1139.25 37.0928C1152.95 31.0517 1135.49 22.3179 1176.74 17.985C1199.39 24.5506 1194.87 32.0115 1208.25 38.91C1235.44 62.0723 1244.72 85.9521 1201.75 108.88C1161.61 100.219 1161.03 89.6034 1136.14 80.1895C1153.65 86.3124 1106.59 74.8897 1105.89 82.6065C1090.12 94.9185 1075.33 107.258 1059.52 119.578C1049.61 127.807 1046.88 136.223 1041.57 144.415L1038.73 144.388L1038.72 144.389ZM1024.43 118.077C1015.74 118.63 1033.57 118.721 1024.43 118.077V118.077ZM1060.9 76.4595C1047.18 66.719 1039.07 56.8877 1022 47.2032C993.471 57.1093 1009.24 67.7324 1009.37 77.9392C1013.38 86.742 1010.42 95.611 1023.19 104.344C1081.94 108.398 1062.6 79.0104 1060.9 76.4588L1060.9 76.4595ZM1202.91 91.7083C1231.75 71.4947 1214.09 50.8779 1180.04 30.8747C1123.17 39.3734 1155.14 50.3005 1140.18 59.9154C1145.42 70.7552 1157.16 81.8812 1202.91 91.7065L1202.91 91.7083ZM426.44 144.162C422.043 141.832 436.587 145.068 426.44 144.162V144.162ZM968.184 139.963C971.798 135.886 973.304 142.052 968.184 139.963V139.963ZM1217.69 132.74C1210.65 128.37 1229.81 126.994 1223.81 132.52C1224.81 136.339 1212.93 139.008 1217.69 132.74ZM1160.18 137.701C1146.89 133.991 1166.66 125.677 1163.57 134.397C1163.71 135.505 1163.48 136.638 1160.18 137.701ZM330.804 135.497C327.268 133.648 339.776 136.365 330.804 135.497V135.497ZM784.151 133.958C783.831 131.627 788.097 135.228 784.151 133.958V133.958ZM784.368 131.678C786.494 129.207 786.494 134.149 784.368 131.678V131.678ZM376.021 131.247C372.359 129.459 382.435 131.811 376.021 131.247V131.247ZM784.256 129.247C785.801 127.152 785.801 131.342 784.256 129.247V129.247ZM16.5558 118.757C42.9897 82.4964 13.2199 87.58 21.1214 117.623C20.2444 120.301 15.2733 124.172 16.5558 118.757ZM650.268 121.151C650.737 115.413 616.108 100.597 651.668 100.161C666.824 106.978 679.827 113.835 650.268 121.151ZM121.687 115.945C114.013 108.586 132.603 112.649 123.913 117.596L121.687 115.945ZM132.979 108.674C113.766 107.424 139.381 106.647 132.979 108.674V108.674ZM398.291 104.046C375.802 88.4776 376.461 72.635 372.774 56.9158C370.374 40.3918 359.226 36.5973 399.722 4.44656C417.247 8.29609 379.323 20.0815 383.735 26.818C376.867 43.3803 379.926 59.9894 382.471 76.5539C421.576 84.7361 326.561 98.9469 398.291 104.043L398.291 104.046ZM114.228 83.7418C37.3543 131.872 75.7899 107.807 114.228 83.7418V83.7418ZM531.575 79.2571C511.658 77.5733 539.281 77.0503 531.575 79.2571V79.2571ZM792.252 70.1354C788.589 68.347 798.665 70.699 792.252 70.1354V70.1354ZM795.064 65.5748C791.401 63.7864 801.477 66.1383 795.064 65.5748V65.5748ZM662.877 64.0545C659.214 62.2661 669.29 64.618 662.877 64.0545V64.0545ZM1227.96 59.7553C1238.67 58.6606 1225.84 61.8584 1227.96 59.7553V59.7553ZM880.958 49.892C883.838 34.202 889.957 18.478 910.765 2.93211C933.527 11.3873 891.068 19.7675 895.141 28.3099C889.861 37.0458 892.082 45.8422 880.736 54.5291C879.673 52.9842 881.054 51.4381 880.958 49.8924L880.958 49.892ZM1436.29 47.333C1432.62 45.5446 1442.7 47.8965 1436.29 47.333V47.333ZM1277.59 46.927C1272.95 35.1415 1250.59 28.7234 1256.04 3.46963C1293.82 4.61491 1263.87 15.5467 1274.81 20.3618C1277.41 29.2099 1287.01 38.0896 1277.59 46.9282V46.927ZM1271.82 18.3536C1263.13 18.9058 1280.96 18.9973 1271.82 18.3536V18.3536ZM1436.86 44.7257C1438.99 42.2549 1438.99 47.1965 1436.86 44.7257V44.7257ZM602.112 41.9586C592.96 37.9835 613.09 43.4531 602.112 41.9586V41.9586ZM685.165 41.4083C669.95 29.1142 656.112 16.7997 642.894 4.47885C674.793 10.3743 658.743 18.4984 670.117 25.254C667.222 29.3489 707.766 34.051 708.913 27.1082C718.286 21.1693 698.614 9.00592 709.203 6.8177C713.653 18.2383 721.447 29.9054 694.423 41.0928C701.466 38.1366 691.103 41.3945 685.165 41.4087L685.165 41.4083ZM957.041 41.1778C958.971 34.7262 967.673 20.5845 974.402 19.0995C972.833 26.4893 965.827 33.8518 957.041 41.1778ZM449.638 39.4691C451.423 35.7229 478.002 27.2406 464.414 35.9601C462.624 37.2371 458.785 38.5685 449.638 39.4691ZM1433.28 35.1486C1436.88 32.564 1437.58 38.1069 1433.28 35.1486V35.1486ZM688.363 31.9834C680.16 30.5489 703.985 32.5668 688.363 31.9834V31.9834ZM1433.98 28.7636C1434.79 25.919 1436.77 30.6229 1433.98 28.7636V28.7636ZM308.282 26.8022C290.366 14.2743 317.732 -5.62737 328.813 16.9076C325.073 20.2102 324.145 23.8569 308.282 26.8022ZM1091.79 22.7672C1094.23 17.0405 1050.73 2.6667 1116.34 3.29699C1133.3 9.93645 1096.2 16.2478 1091.79 22.7672ZM1185.99 22.7081C1182.33 20.9197 1192.4 23.2716 1185.99 22.7081V22.7081ZM641.968 21.1623C647.655 19.838 644.19 23.3676 641.968 21.1623V21.1623ZM328.206 16.9309C324.543 15.1425 334.619 17.4944 328.206 16.9309V16.9309ZM921.643 9.02569C917.98 7.23729 928.057 9.58921 921.643 9.02569V9.02569Z" fill="#8C5829"/>
</svg>
