<svg width="256" height="63" viewBox="0 0 256 63" fill="none" xmlns="http://www.w3.org/2000/svg">
<rect x="1.5" y="1.5" width="253" height="60" rx="30" fill="#351A14"/>
<g clip-path="url(#clip0_72_102)">
<path d="M70.6411 31.9169C70.6289 29.8165 71.5683 28.2335 73.4653 27.0662C72.4043 25.5263 70.7992 24.6794 68.6833 24.5161C66.6799 24.356 64.488 25.6988 63.6854 25.6988C62.8373 25.6988 60.8977 24.5716 59.3716 24.5716C56.2221 24.6209 52.875 27.1155 52.875 32.191C52.875 33.6909 53.1456 35.24 53.6867 36.8354C54.4102 38.9358 57.0186 44.0822 59.7394 43.999C61.1622 43.9651 62.1685 42.9765 64.0198 42.9765C65.8165 42.9765 66.7468 43.999 68.3337 43.999C71.0789 43.959 73.4379 39.2807 74.125 37.1742C70.4435 35.4156 70.6411 32.0247 70.6411 31.9169ZM67.446 22.5235C68.9873 20.6695 68.8475 18.9817 68.8019 18.375C67.4399 18.4551 65.8652 19.3143 64.9683 20.3707C63.9803 21.5041 63.3997 22.9054 63.5243 24.4853C64.9957 24.5993 66.3394 23.8324 67.446 22.5235Z" fill="url(#paint0_radial_72_102)"/>
</g>
<path d="M83.592 24C83.288 23.992 82.764 23.988 82.02 23.988C81.908 23.988 81.832 23.916 81.792 23.772C81.768 23.692 81.756 23.552 81.756 23.352C81.756 22.992 81.748 22.676 81.732 22.404C81.732 22.156 81.724 21.704 81.708 21.048L81.696 19.608V17.34C81.696 17.284 81.724 17.224 81.78 17.16C81.844 17.096 81.904 17.064 81.96 17.064L82.656 17.076C82.768 17.084 82.932 17.088 83.148 17.088C83.38 17.096 83.668 17.1 84.012 17.1C84.524 17.1 84.924 17.096 85.212 17.088C85.492 17.072 85.96 17.064 86.616 17.064C87.064 17.064 87.476 17.144 87.852 17.304C88.324 17.504 88.7 17.816 88.98 18.24C89.3 18.736 89.46 19.38 89.46 20.172C89.46 20.884 89.38 21.48 89.22 21.96C89.068 22.44 88.82 22.828 88.476 23.124C88.124 23.428 87.66 23.652 87.084 23.796C86.516 23.932 85.804 24 84.948 24H83.592ZM85.032 22.644C85.208 22.644 85.324 22.636 85.38 22.62C85.436 22.604 85.476 22.584 85.5 22.56C85.62 22.44 85.732 22.084 85.836 21.492C85.924 20.94 85.968 20.424 85.968 19.944V19.752C85.968 19.472 85.948 19.204 85.908 18.948C85.876 18.636 85.812 18.38 85.716 18.18C85.66 18.092 85.588 18.048 85.5 18.048C85.428 18.048 85.34 18.068 85.236 18.108L85.152 18.144C85.152 18.328 85.144 18.74 85.128 19.38L85.116 20.124C85.116 20.284 85.112 20.408 85.104 20.496L85.092 20.868L85.032 22.644ZM94.2477 24.3C94.1837 24.3 94.0957 24.292 93.9837 24.276C93.9277 24.26 93.8397 24.252 93.7197 24.252C93.4157 24.252 93.0397 24.184 92.5917 24.048H92.5077C92.4517 24.048 92.3917 24.032 92.3277 24C92.3117 23.984 92.2917 23.972 92.2677 23.964C92.2437 23.948 92.2157 23.928 92.1837 23.904L91.9317 23.76C91.6917 23.624 91.4797 23.436 91.2957 23.196C91.1117 22.948 90.9637 22.676 90.8517 22.38C90.6357 21.836 90.5277 21.28 90.5277 20.712C90.5277 20.08 90.6557 19.472 90.9117 18.888C91.1837 18.272 91.5477 17.784 92.0037 17.424C92.5077 17.024 93.0677 16.824 93.6837 16.824C93.8757 16.824 94.0237 16.832 94.1277 16.848C94.1277 16.832 94.1397 16.824 94.1637 16.824H94.1997C94.7597 16.824 95.2597 16.844 95.6997 16.884C96.0757 16.94 96.4237 17.056 96.7437 17.232C97.3837 17.656 97.8437 18.12 98.1237 18.624C98.4197 19.184 98.5677 19.844 98.5677 20.604C98.5677 21.364 98.3877 22.076 98.0277 22.74L97.9077 22.932C97.8757 22.98 97.8557 23.004 97.8477 23.004L97.8117 23.064L97.7277 23.112C97.3837 23.624 96.8637 23.972 96.1677 24.156C95.7037 24.252 95.0637 24.3 94.2477 24.3ZM94.4517 23.4C94.5237 23.4 94.5797 23.356 94.6197 23.268C94.7157 23.124 94.7957 22.844 94.8597 22.428C94.8677 22.356 94.8877 22.196 94.9197 21.948C94.9517 21.7 94.9717 21.468 94.9797 21.252C95.0117 20.708 95.0277 20.372 95.0277 20.244V19.968V19.872C95.0277 19.584 95.0157 19.336 94.9917 19.128C94.9677 18.8 94.9197 18.54 94.8477 18.348C94.7757 18.252 94.7197 18.204 94.6797 18.204C94.5997 18.204 94.5237 18.264 94.4517 18.384C94.3797 18.504 94.3237 18.724 94.2837 19.044L94.0317 20.964V21.204V21.36C94.0557 21.696 94.0677 21.916 94.0677 22.02L94.0917 22.308L94.1277 22.692C94.1277 22.756 94.1357 22.812 94.1517 22.86L94.2837 23.304C94.2917 23.336 94.3117 23.36 94.3437 23.376C94.3837 23.392 94.4197 23.4 94.4517 23.4ZM103.042 24C102.794 24 102.602 23.988 102.466 23.964C102.274 23.948 102.122 23.94 102.01 23.94C101.946 23.94 101.858 23.948 101.746 23.964C101.69 23.98 101.598 23.988 101.47 23.988C101.438 23.988 101.406 23.984 101.374 23.976C101.35 23.968 101.326 23.964 101.302 23.964C101.246 23.94 101.194 23.928 101.146 23.928L101.038 23.94C100.966 23.932 100.93 23.892 100.93 23.82L100.246 20.64C100.046 19.728 99.8783 18.896 99.7423 18.144C99.6943 18.072 99.6663 17.98 99.6583 17.868C99.6503 17.828 99.6463 17.768 99.6463 17.688V17.52C99.6463 17.424 99.6623 17.348 99.6943 17.292C99.7263 17.236 99.7703 17.208 99.8263 17.208H99.9583H100.186C100.242 17.216 100.33 17.22 100.45 17.22L100.906 17.232H100.99H101.422C101.438 17.24 101.454 17.244 101.47 17.244C101.486 17.244 101.498 17.244 101.506 17.244L101.518 17.28C101.55 17.28 101.57 17.268 101.578 17.244L101.662 17.232H101.698C101.706 17.232 101.718 17.232 101.734 17.232C101.75 17.232 101.766 17.236 101.782 17.244C101.838 17.244 101.902 17.248 101.974 17.256C102.046 17.264 102.13 17.268 102.226 17.268C102.282 17.276 102.362 17.28 102.466 17.28C102.506 17.376 102.57 17.644 102.658 18.084C102.69 18.204 102.73 18.416 102.778 18.72L102.91 19.428L102.922 19.524C102.93 19.54 102.942 19.608 102.958 19.728L103.006 19.98L103.042 20.232C103.058 20.28 103.066 20.32 103.066 20.352C103.074 20.376 103.078 20.4 103.078 20.424C103.078 20.448 103.078 20.468 103.078 20.484C103.086 20.492 103.09 20.5 103.09 20.508V20.544C103.098 20.56 103.102 20.58 103.102 20.604C103.118 20.604 103.126 20.624 103.126 20.664L103.138 20.604C103.138 20.572 103.146 20.54 103.162 20.508C103.162 20.484 103.17 20.456 103.186 20.424C103.186 20.392 103.194 20.328 103.21 20.232L103.258 19.98C103.274 19.868 103.29 19.784 103.306 19.728C103.306 19.656 103.314 19.588 103.33 19.524C103.33 19.492 103.33 19.472 103.33 19.464C103.338 19.448 103.342 19.436 103.342 19.428L103.486 18.72L103.546 18.408C103.602 18.048 103.654 17.776 103.702 17.592C103.718 17.52 103.754 17.416 103.81 17.28H104.002L104.218 17.268C104.218 17.252 104.23 17.24 104.254 17.232C104.278 17.216 104.306 17.208 104.338 17.208H104.518H104.806L105.37 17.22H105.406C105.406 17.212 105.41 17.208 105.418 17.208C105.45 17.208 105.47 17.212 105.478 17.22L105.502 17.232H106.126L106.222 17.244C106.222 17.252 106.226 17.26 106.234 17.268C106.242 17.268 106.246 17.272 106.246 17.28L106.306 17.244C106.306 17.244 106.31 17.244 106.318 17.244C106.334 17.236 106.35 17.232 106.366 17.232H106.402C106.41 17.232 106.422 17.236 106.438 17.244C106.454 17.244 106.478 17.244 106.51 17.244C106.574 17.268 106.626 17.28 106.666 17.28C106.73 17.408 106.794 17.648 106.858 18C106.89 18.12 106.93 18.308 106.978 18.564L107.11 19.224L107.122 19.344C107.13 19.368 107.138 19.408 107.146 19.464C107.154 19.52 107.158 19.56 107.158 19.584C107.166 19.632 107.174 19.692 107.182 19.764C107.198 19.828 107.206 19.884 107.206 19.932L107.266 20.244C107.266 20.324 107.274 20.404 107.29 20.484L107.302 20.604C107.302 20.644 107.31 20.676 107.326 20.7V20.76L107.338 20.7C107.338 20.668 107.346 20.636 107.362 20.604C107.362 20.596 107.362 20.584 107.362 20.568C107.37 20.544 107.378 20.516 107.386 20.484L107.41 20.244L107.458 19.932C107.49 19.772 107.506 19.656 107.506 19.584L107.542 19.344C107.558 19.304 107.566 19.264 107.566 19.224C107.614 18.936 107.654 18.716 107.686 18.564C107.766 18.108 107.838 17.768 107.902 17.544C107.918 17.488 107.938 17.436 107.962 17.388C107.986 17.332 108.002 17.296 108.01 17.28C108.106 17.28 108.202 17.268 108.298 17.244C108.37 17.244 108.426 17.24 108.466 17.232H108.502L108.526 17.244V17.28C108.582 17.28 108.614 17.268 108.622 17.244C108.622 17.244 108.626 17.244 108.634 17.244C108.642 17.244 108.646 17.24 108.646 17.232H109.186H109.246L109.69 17.22C109.818 17.22 109.91 17.216 109.966 17.208H110.206H110.338C110.45 17.208 110.506 17.312 110.506 17.52C110.482 17.584 110.462 17.652 110.446 17.724C110.438 17.796 110.43 17.848 110.422 17.88C110.414 17.96 110.41 18.048 110.41 18.144C110.234 18.96 110.006 19.892 109.726 20.94L109.018 23.82C108.97 23.828 108.938 23.852 108.922 23.892C108.914 23.9 108.91 23.912 108.91 23.928C108.91 23.936 108.91 23.94 108.91 23.94L108.826 23.928C108.778 23.928 108.738 23.94 108.706 23.964C108.69 23.964 108.67 23.968 108.646 23.976C108.622 23.984 108.602 23.988 108.586 23.988C108.466 23.988 108.374 23.98 108.31 23.964C108.198 23.948 108.11 23.94 108.046 23.94C108.014 23.956 107.986 23.964 107.962 23.964C107.882 23.988 107.774 24 107.638 24H107.446C107.214 24 107.026 23.988 106.882 23.964C106.706 23.948 106.554 23.94 106.426 23.94C106.394 23.94 106.338 23.948 106.258 23.964C106.218 23.98 106.162 23.988 106.09 23.988C106.066 23.988 106.042 23.984 106.018 23.976C106.002 23.968 105.982 23.964 105.958 23.964C105.926 23.94 105.886 23.928 105.838 23.928L105.742 23.94C105.678 23.932 105.646 23.892 105.646 23.82L104.986 20.484L104.302 23.82C104.246 23.836 104.218 23.86 104.218 23.892C104.21 23.9 104.206 23.912 104.206 23.928C104.206 23.936 104.206 23.94 104.206 23.94L104.11 23.928C104.086 23.928 104.066 23.94 104.05 23.964C104.034 23.964 104.022 23.968 104.014 23.976C104.006 23.984 103.994 23.988 103.978 23.988C103.826 23.988 103.722 23.98 103.666 23.964C103.522 23.948 103.406 23.94 103.318 23.94C103.318 23.972 103.286 23.988 103.222 23.988C103.198 23.996 103.138 24 103.042 24ZM112.847 24.036H112.655H112.475H112.379L111.911 23.904L111.887 23.832C111.879 23.832 111.875 23.792 111.875 23.712C111.875 23.608 111.871 23.524 111.863 23.46L111.851 23.004C111.843 22.908 111.839 22.756 111.839 22.548C111.839 22.348 111.835 22.2 111.827 22.104V21.744C111.779 21.24 111.755 20.72 111.755 20.184V20.088V19.908C111.755 19.812 111.759 19.744 111.767 19.704V19.608V19.524C111.759 19.5 111.755 19.46 111.755 19.404V19.272V19.2V19.08V18.888C111.755 18.792 111.759 18.724 111.767 18.684V18.564L111.779 18.504V18.348C111.787 18.268 111.791 18.16 111.791 18.024C111.791 17.92 111.787 17.828 111.779 17.748L111.767 17.472L111.755 17.424C111.731 17.408 111.731 17.396 111.755 17.388C111.787 17.26 111.887 17.168 112.055 17.112C112.135 17.08 112.267 17.064 112.451 17.064C112.587 17.064 112.943 17.052 113.519 17.028C113.807 17.012 113.987 17.004 114.059 17.004C114.179 16.996 114.323 16.992 114.491 16.992C114.571 17 114.627 17.016 114.659 17.04C114.691 17.056 114.719 17.088 114.743 17.136C114.775 17.184 114.799 17.22 114.815 17.244L115.055 17.592C115.047 17.584 115.147 17.728 115.355 18.024C115.547 18.336 115.779 18.688 116.051 19.08C116.091 19.144 116.139 19.216 116.195 19.296C116.251 19.376 116.311 19.468 116.375 19.572V19.152C116.383 19.04 116.387 18.88 116.387 18.672C116.387 18.4 116.395 18.096 116.411 17.76C116.411 17.696 116.415 17.64 116.423 17.592C116.431 17.536 116.435 17.492 116.435 17.46C116.435 17.38 116.439 17.34 116.447 17.34C116.479 17.292 116.535 17.24 116.615 17.184C116.711 17.12 116.811 17.092 116.915 17.1H117.515H117.635C117.755 17.1 117.855 17.104 117.935 17.112H118.295C118.375 17.12 118.495 17.124 118.655 17.124H118.919H119.039C119.199 17.124 119.319 17.152 119.399 17.208C119.447 17.24 119.479 17.284 119.495 17.34C119.511 17.388 119.519 17.464 119.519 17.568C119.519 17.672 119.515 17.76 119.507 17.832C119.499 17.912 119.495 18.008 119.495 18.12V18.204C119.503 18.228 119.507 18.264 119.507 18.312V18.624L119.495 20.004V21.36V21.684C119.495 22.548 119.487 23.096 119.471 23.328L119.435 23.724C119.395 23.908 119.339 24.004 119.267 24.012C119.251 24.012 119.227 24.016 119.195 24.024C119.171 24.032 119.143 24.036 119.111 24.036C118.823 24.036 118.611 24.028 118.475 24.012H117.851H117.227H117.071C117.047 24.02 117.015 24.024 116.975 24.024C116.879 24.024 116.779 24.004 116.675 23.964C116.611 23.948 116.543 23.904 116.471 23.832L115.415 22.344C115.375 22.288 115.299 22.196 115.187 22.068L115.031 21.924C114.991 21.884 114.959 21.864 114.935 21.864C114.911 21.864 114.891 21.876 114.875 21.9C114.859 21.916 114.851 21.932 114.851 21.948V22.152C114.843 22.216 114.839 22.316 114.839 22.452V22.8C114.831 22.888 114.827 23.008 114.827 23.16V23.448V23.628C114.819 23.644 114.815 23.668 114.815 23.7C114.815 23.708 114.803 23.772 114.779 23.892C114.763 23.924 114.751 23.944 114.743 23.952C114.735 23.96 114.707 23.964 114.659 23.964C114.643 23.956 114.627 23.952 114.611 23.952C114.603 23.952 114.595 23.952 114.587 23.952C113.955 24.008 113.431 24.036 113.015 24.036H112.847ZM124.219 24.06L124.063 24.036H123.871C123.751 24.02 123.543 24.004 123.247 23.988C123.183 23.988 123.123 23.984 123.067 23.976C123.011 23.968 122.959 23.964 122.911 23.964H122.647L122.527 23.952C122.271 23.952 122.083 23.956 121.963 23.964C121.843 23.98 121.655 23.988 121.399 23.988H121.159L120.943 24L120.907 23.952V23.82V23.52V23.208V23.004V22.188C120.907 21.996 120.899 21.856 120.883 21.768V21.48L120.931 20.964C120.955 20.644 120.967 20.184 120.967 19.584C120.983 18.616 121.043 17.916 121.147 17.484C121.203 17.252 121.295 17.104 121.423 17.04L122.827 17.052C122.947 17.06 123.119 17.064 123.343 17.064H123.919C123.959 17.072 124.031 17.08 124.135 17.088C124.247 17.096 124.331 17.116 124.387 17.148C124.435 17.188 124.467 17.244 124.483 17.316C124.507 17.38 124.519 17.476 124.519 17.604L124.507 17.7V17.844C124.483 17.9 124.471 17.956 124.471 18.012C124.455 18.076 124.451 18.14 124.459 18.204V18.384C124.467 18.424 124.471 18.48 124.471 18.552L124.483 18.648V18.924L124.495 19.308C124.503 19.388 124.507 19.5 124.507 19.644C124.523 19.756 124.543 19.832 124.567 19.872C124.567 19.928 124.563 19.988 124.555 20.052C124.547 20.116 124.543 20.18 124.543 20.244C124.535 20.34 124.531 20.484 124.531 20.676C124.531 20.86 124.535 20.996 124.543 21.084C124.543 21.212 124.563 21.344 124.603 21.48C124.683 21.512 124.775 21.528 124.879 21.528C125.143 21.528 125.415 21.524 125.695 21.516C125.983 21.508 126.239 21.484 126.463 21.444C126.511 21.452 126.555 21.484 126.595 21.54C126.643 21.596 126.667 21.644 126.667 21.684L126.583 23.748C126.567 23.796 126.535 23.828 126.487 23.844C126.351 23.908 126.163 23.948 125.923 23.964C125.603 24.012 125.391 24.036 125.287 24.036H125.083C124.923 24.036 124.803 24.04 124.723 24.048C124.563 24.064 124.451 24.072 124.387 24.072L124.219 24.06ZM131.232 24.3C131.168 24.3 131.08 24.292 130.968 24.276C130.912 24.26 130.824 24.252 130.704 24.252C130.4 24.252 130.024 24.184 129.576 24.048H129.492C129.436 24.048 129.376 24.032 129.312 24C129.296 23.984 129.276 23.972 129.252 23.964C129.228 23.948 129.2 23.928 129.168 23.904L128.916 23.76C128.676 23.624 128.464 23.436 128.28 23.196C128.096 22.948 127.948 22.676 127.836 22.38C127.62 21.836 127.512 21.28 127.512 20.712C127.512 20.08 127.64 19.472 127.896 18.888C128.168 18.272 128.532 17.784 128.988 17.424C129.492 17.024 130.052 16.824 130.668 16.824C130.86 16.824 131.008 16.832 131.112 16.848C131.112 16.832 131.124 16.824 131.148 16.824H131.184C131.744 16.824 132.244 16.844 132.684 16.884C133.06 16.94 133.408 17.056 133.728 17.232C134.368 17.656 134.828 18.12 135.108 18.624C135.404 19.184 135.552 19.844 135.552 20.604C135.552 21.364 135.372 22.076 135.012 22.74L134.892 22.932C134.86 22.98 134.84 23.004 134.832 23.004L134.796 23.064L134.712 23.112C134.368 23.624 133.848 23.972 133.152 24.156C132.688 24.252 132.048 24.3 131.232 24.3ZM131.436 23.4C131.508 23.4 131.564 23.356 131.604 23.268C131.7 23.124 131.78 22.844 131.844 22.428C131.852 22.356 131.872 22.196 131.904 21.948C131.936 21.7 131.956 21.468 131.964 21.252C131.996 20.708 132.012 20.372 132.012 20.244V19.968V19.872C132.012 19.584 132 19.336 131.976 19.128C131.952 18.8 131.904 18.54 131.832 18.348C131.76 18.252 131.704 18.204 131.664 18.204C131.584 18.204 131.508 18.264 131.436 18.384C131.364 18.504 131.308 18.724 131.268 19.044L131.016 20.964V21.204V21.36C131.04 21.696 131.052 21.916 131.052 22.02L131.076 22.308L131.112 22.692C131.112 22.756 131.12 22.812 131.136 22.86L131.268 23.304C131.276 23.336 131.296 23.36 131.328 23.376C131.368 23.392 131.404 23.4 131.436 23.4ZM136.871 24.012C136.719 24.012 136.659 23.876 136.691 23.604C136.691 23.508 136.711 23.4 136.751 23.28C136.751 23.224 136.755 23.18 136.763 23.148C136.771 23.108 136.775 23.076 136.775 23.052C136.959 22.18 137.163 21.32 137.387 20.472L138.203 17.28C138.203 17.264 138.215 17.244 138.239 17.22C138.263 17.196 138.287 17.176 138.311 17.16H138.395C138.491 17.16 138.567 17.148 138.623 17.124C138.671 17.116 138.755 17.112 138.875 17.112C139.067 17.112 139.211 17.116 139.307 17.124C139.451 17.148 139.599 17.16 139.751 17.16L140.375 17.148C140.439 17.132 140.515 17.124 140.603 17.124L141.131 17.1H141.527C141.679 17.1 141.827 17.104 141.971 17.112H142.307C142.387 17.12 142.503 17.124 142.655 17.124H143.111C143.135 17.124 143.159 17.128 143.183 17.136C143.207 17.144 143.227 17.152 143.243 17.16C143.275 17.176 143.315 17.184 143.363 17.184H143.471C143.527 17.224 143.555 17.264 143.555 17.304L144.407 20.472C144.671 21.488 144.879 22.348 145.031 23.052C145.031 23.092 145.043 23.168 145.067 23.28C145.099 23.44 145.115 23.568 145.115 23.664C145.115 23.72 145.107 23.796 145.091 23.892C145.051 23.972 144.995 24.012 144.923 24.012H144.791C144.687 24.012 144.607 24.008 144.551 24H144.287H144.035H143.831C143.775 24 143.743 23.996 143.735 23.988H143.075L143.063 23.964C143.047 23.948 143.023 23.94 142.991 23.94L142.955 23.964C142.955 23.98 142.947 23.988 142.931 23.988H142.895H142.811C142.771 23.972 142.699 23.964 142.595 23.964C142.403 23.948 142.243 23.94 142.115 23.94C142.027 23.756 141.923 23.352 141.803 22.728C141.635 22.752 141.443 22.764 141.227 22.764H140.915H140.615C140.583 22.884 140.563 22.984 140.555 23.064C140.547 23.104 140.515 23.24 140.459 23.472C140.403 23.704 140.351 23.86 140.303 23.94L140.231 23.964C140.207 23.972 140.187 23.98 140.171 23.988C140.155 23.988 140.147 23.988 140.147 23.988H140.123C140.075 23.988 140.043 23.98 140.027 23.964C139.995 23.948 139.975 23.94 139.967 23.94L139.511 23.964H139.175C139.135 23.972 139.103 23.98 139.079 23.988C139.055 23.988 139.039 23.988 139.031 23.988H138.071H137.975C137.903 23.996 137.755 24 137.531 24H137.243C137.195 24.008 137.119 24.012 137.015 24.012H136.871ZM141.695 21.444C141.647 21.172 141.619 21.012 141.611 20.964L141.515 20.388C141.499 20.276 141.483 20.176 141.467 20.088C141.451 19.992 141.439 19.904 141.431 19.824C141.407 19.728 141.387 19.64 141.371 19.56C141.363 19.472 141.351 19.392 141.335 19.32C141.327 19.272 141.319 19.212 141.311 19.14C141.303 19.06 141.291 19.004 141.275 18.972L141.251 18.828C141.251 18.796 141.243 18.768 141.227 18.744L141.215 18.672C141.199 18.72 141.191 18.744 141.191 18.744V18.792V18.828C141.191 18.836 141.187 18.852 141.179 18.876C141.171 18.892 141.163 18.924 141.155 18.972C141.147 19.012 141.139 19.064 141.131 19.128C141.123 19.184 141.111 19.248 141.095 19.32L141.011 19.812L140.915 20.364L140.879 20.628C140.863 20.692 140.847 20.796 140.831 20.94C140.759 21.3 140.727 21.464 140.735 21.432H141.263C141.271 21.424 141.283 21.416 141.299 21.408C141.315 21.392 141.327 21.384 141.335 21.384H141.371C141.411 21.384 141.443 21.388 141.467 21.396C141.499 21.404 141.527 21.412 141.551 21.42C141.599 21.436 141.647 21.444 141.695 21.444ZM148.338 24C148.034 23.992 147.51 23.988 146.766 23.988C146.654 23.988 146.578 23.916 146.538 23.772C146.514 23.692 146.502 23.552 146.502 23.352C146.502 22.992 146.494 22.676 146.478 22.404C146.478 22.156 146.47 21.704 146.454 21.048L146.442 19.608V17.34C146.442 17.284 146.47 17.224 146.526 17.16C146.59 17.096 146.65 17.064 146.706 17.064L147.402 17.076C147.514 17.084 147.678 17.088 147.894 17.088C148.126 17.096 148.414 17.1 148.758 17.1C149.27 17.1 149.67 17.096 149.958 17.088C150.238 17.072 150.706 17.064 151.362 17.064C151.81 17.064 152.222 17.144 152.598 17.304C153.07 17.504 153.446 17.816 153.726 18.24C154.046 18.736 154.206 19.38 154.206 20.172C154.206 20.884 154.126 21.48 153.966 21.96C153.814 22.44 153.566 22.828 153.222 23.124C152.87 23.428 152.406 23.652 151.83 23.796C151.262 23.932 150.55 24 149.694 24H148.338ZM149.778 22.644C149.954 22.644 150.07 22.636 150.126 22.62C150.182 22.604 150.222 22.584 150.246 22.56C150.366 22.44 150.478 22.084 150.582 21.492C150.67 20.94 150.714 20.424 150.714 19.944V19.752C150.714 19.472 150.694 19.204 150.654 18.948C150.622 18.636 150.558 18.38 150.462 18.18C150.406 18.092 150.334 18.048 150.246 18.048C150.174 18.048 150.086 18.068 149.982 18.108L149.898 18.144C149.898 18.328 149.89 18.74 149.874 19.38L149.862 20.124C149.862 20.284 149.858 20.408 149.85 20.496L149.838 20.868L149.778 22.644ZM162.088 24.3C162.024 24.3 161.936 24.292 161.824 24.276C161.768 24.26 161.68 24.252 161.56 24.252C161.256 24.252 160.88 24.184 160.432 24.048H160.348C160.292 24.048 160.232 24.032 160.168 24C160.152 23.984 160.132 23.972 160.108 23.964C160.084 23.948 160.056 23.928 160.024 23.904L159.772 23.76C159.532 23.624 159.32 23.436 159.136 23.196C158.952 22.948 158.804 22.676 158.692 22.38C158.476 21.836 158.368 21.28 158.368 20.712C158.368 20.08 158.496 19.472 158.752 18.888C159.024 18.272 159.388 17.784 159.844 17.424C160.348 17.024 160.908 16.824 161.524 16.824C161.716 16.824 161.864 16.832 161.968 16.848C161.968 16.832 161.98 16.824 162.004 16.824H162.04C162.6 16.824 163.1 16.844 163.54 16.884C163.916 16.94 164.264 17.056 164.584 17.232C165.224 17.656 165.684 18.12 165.964 18.624C166.26 19.184 166.408 19.844 166.408 20.604C166.408 21.364 166.228 22.076 165.868 22.74L165.748 22.932C165.716 22.98 165.696 23.004 165.688 23.004L165.652 23.064L165.568 23.112C165.224 23.624 164.704 23.972 164.008 24.156C163.544 24.252 162.904 24.3 162.088 24.3ZM162.292 23.4C162.364 23.4 162.42 23.356 162.46 23.268C162.556 23.124 162.636 22.844 162.7 22.428C162.708 22.356 162.728 22.196 162.76 21.948C162.792 21.7 162.812 21.468 162.82 21.252C162.852 20.708 162.868 20.372 162.868 20.244V19.968V19.872C162.868 19.584 162.856 19.336 162.832 19.128C162.808 18.8 162.76 18.54 162.688 18.348C162.616 18.252 162.56 18.204 162.52 18.204C162.44 18.204 162.364 18.264 162.292 18.384C162.22 18.504 162.164 18.724 162.124 19.044L161.872 20.964V21.204V21.36C161.896 21.696 161.908 21.916 161.908 22.02L161.932 22.308L161.968 22.692C161.968 22.756 161.976 22.812 161.992 22.86L162.124 23.304C162.132 23.336 162.152 23.36 162.184 23.376C162.224 23.392 162.26 23.4 162.292 23.4ZM168.698 24.036H168.506H168.326H168.23L167.762 23.904L167.738 23.832C167.73 23.832 167.726 23.792 167.726 23.712C167.726 23.608 167.722 23.524 167.714 23.46L167.702 23.004C167.694 22.908 167.69 22.756 167.69 22.548C167.69 22.348 167.686 22.2 167.678 22.104V21.744C167.63 21.24 167.606 20.72 167.606 20.184V20.088V19.908C167.606 19.812 167.61 19.744 167.618 19.704V19.608V19.524C167.61 19.5 167.606 19.46 167.606 19.404V19.272V19.2V19.08V18.888C167.606 18.792 167.61 18.724 167.618 18.684V18.564L167.63 18.504V18.348C167.638 18.268 167.642 18.16 167.642 18.024C167.642 17.92 167.638 17.828 167.63 17.748L167.618 17.472L167.606 17.424C167.582 17.408 167.582 17.396 167.606 17.388C167.638 17.26 167.738 17.168 167.906 17.112C167.986 17.08 168.118 17.064 168.302 17.064C168.438 17.064 168.794 17.052 169.37 17.028C169.658 17.012 169.838 17.004 169.91 17.004C170.03 16.996 170.174 16.992 170.342 16.992C170.422 17 170.478 17.016 170.51 17.04C170.542 17.056 170.57 17.088 170.594 17.136C170.626 17.184 170.65 17.22 170.666 17.244L170.906 17.592C170.898 17.584 170.998 17.728 171.206 18.024C171.398 18.336 171.63 18.688 171.902 19.08C171.942 19.144 171.99 19.216 172.046 19.296C172.102 19.376 172.162 19.468 172.226 19.572V19.152C172.234 19.04 172.238 18.88 172.238 18.672C172.238 18.4 172.246 18.096 172.262 17.76C172.262 17.696 172.266 17.64 172.274 17.592C172.282 17.536 172.286 17.492 172.286 17.46C172.286 17.38 172.29 17.34 172.298 17.34C172.33 17.292 172.386 17.24 172.466 17.184C172.562 17.12 172.662 17.092 172.766 17.1H173.366H173.486C173.606 17.1 173.706 17.104 173.786 17.112H174.146C174.226 17.12 174.346 17.124 174.506 17.124H174.77H174.89C175.05 17.124 175.17 17.152 175.25 17.208C175.298 17.24 175.33 17.284 175.346 17.34C175.362 17.388 175.37 17.464 175.37 17.568C175.37 17.672 175.366 17.76 175.358 17.832C175.35 17.912 175.346 18.008 175.346 18.12V18.204C175.354 18.228 175.358 18.264 175.358 18.312V18.624L175.346 20.004V21.36V21.684C175.346 22.548 175.338 23.096 175.322 23.328L175.286 23.724C175.246 23.908 175.19 24.004 175.118 24.012C175.102 24.012 175.078 24.016 175.046 24.024C175.022 24.032 174.994 24.036 174.962 24.036C174.674 24.036 174.462 24.028 174.326 24.012H173.702H173.078H172.922C172.898 24.02 172.866 24.024 172.826 24.024C172.73 24.024 172.63 24.004 172.526 23.964C172.462 23.948 172.394 23.904 172.322 23.832L171.266 22.344C171.226 22.288 171.15 22.196 171.038 22.068L170.882 21.924C170.842 21.884 170.81 21.864 170.786 21.864C170.762 21.864 170.742 21.876 170.726 21.9C170.71 21.916 170.702 21.932 170.702 21.948V22.152C170.694 22.216 170.69 22.316 170.69 22.452V22.8C170.682 22.888 170.678 23.008 170.678 23.16V23.448V23.628C170.67 23.644 170.666 23.668 170.666 23.7C170.666 23.708 170.654 23.772 170.63 23.892C170.614 23.924 170.602 23.944 170.594 23.952C170.586 23.96 170.558 23.964 170.51 23.964C170.494 23.956 170.478 23.952 170.462 23.952C170.454 23.952 170.446 23.952 170.438 23.952C169.806 24.008 169.282 24.036 168.866 24.036H168.698ZM183.344 24.036H182.792H182.168H181.376C181.304 23.924 181.256 23.72 181.232 23.424C181.2 23.16 181.184 22.776 181.184 22.272L181.196 20.952C181.204 20.632 181.208 20.124 181.208 19.428L181.172 19.392H179.984C179.808 19.392 179.692 19.192 179.636 18.792C179.604 18.576 179.588 18.26 179.588 17.844V17.688C179.604 17.632 179.612 17.544 179.612 17.424V17.184L179.624 17.088L179.672 17.04L179.888 17.052H180.128C180.48 17.052 180.748 17.048 180.932 17.04H181.712H181.928H182.336H182.852H183.368C183.472 17.048 183.62 17.052 183.812 17.052H184.112C184.144 17.036 184.196 17.028 184.268 17.028C184.324 17.012 184.376 17.004 184.424 17.004C184.576 17.004 184.692 17.012 184.772 17.028C184.932 17.044 185.052 17.052 185.132 17.052L185.444 17.04H185.912C186.152 17.04 186.316 17.044 186.404 17.052L186.572 17.064C186.58 17.072 186.592 17.084 186.608 17.1C186.624 17.108 186.632 17.116 186.632 17.124V19.164C186.632 19.212 186.604 19.264 186.548 19.32C186.5 19.376 186.452 19.412 186.404 19.428C186.14 19.372 185.796 19.344 185.372 19.344H184.916C184.796 19.344 184.716 19.496 184.676 19.8C184.66 19.888 184.652 20.016 184.652 20.184V20.544C184.652 20.704 184.656 20.824 184.664 20.904V21.24C184.664 21.568 184.648 21.872 184.616 22.152C184.6 22.36 184.592 22.512 184.592 22.608C184.576 22.704 184.568 22.836 184.568 23.004C184.568 23.244 184.56 23.444 184.544 23.604C184.536 23.852 184.444 23.984 184.268 24C184.076 24.024 183.964 24.036 183.932 24.036H183.344ZM189.492 24.036C189.156 24.036 188.872 24.028 188.64 24.012C188.416 23.996 188.204 23.96 188.004 23.904C187.972 23.904 187.948 23.888 187.932 23.856C187.916 23.816 187.904 23.788 187.896 23.772C187.888 23.732 187.884 23.684 187.884 23.628C187.836 22.82 187.792 22.192 187.752 21.744C187.712 21.216 187.692 20.556 187.692 19.764V19.464L187.704 19.008L187.728 18.468L187.74 18.168C187.748 18.112 187.752 18.024 187.752 17.904V17.448C187.752 17.296 187.756 17.196 187.764 17.148C187.764 17.124 187.78 17.112 187.812 17.112C187.884 17.112 187.948 17.096 188.004 17.064C188.028 17.064 188.064 17.064 188.112 17.064C188.168 17.056 188.216 17.056 188.256 17.064H188.652H189.288H189.636H190.308C190.452 17.064 190.56 17.068 190.632 17.076L190.992 17.088C191.08 17.088 191.144 17.096 191.184 17.112C191.232 17.12 191.268 17.144 191.292 17.184C191.316 17.208 191.332 17.256 191.34 17.328C191.348 17.4 191.352 17.48 191.352 17.568V17.664V17.832C191.352 17.912 191.356 17.968 191.364 18V18.12V18.204C191.372 18.236 191.376 18.276 191.376 18.324L191.364 18.684C191.356 18.764 191.352 18.88 191.352 19.032C191.352 19.12 191.36 19.18 191.376 19.212C191.4 19.252 191.436 19.272 191.484 19.272C191.5 19.272 191.54 19.264 191.604 19.248C191.628 19.248 191.66 19.244 191.7 19.236C191.74 19.228 191.784 19.224 191.832 19.224H191.952C191.992 19.24 192.064 19.248 192.168 19.248C192.208 19.248 192.244 19.244 192.276 19.236C192.316 19.228 192.352 19.224 192.384 19.224C192.456 19.224 192.492 19.216 192.492 19.2V18.708V18.528C192.492 18.408 192.496 18.312 192.504 18.24V17.904C192.512 17.824 192.516 17.712 192.516 17.568C192.516 17.432 192.52 17.34 192.528 17.292V17.112H192.564H192.624C192.672 17.112 192.696 17.096 192.696 17.064H193.272C193.512 17.064 193.692 17.072 193.812 17.088C194.02 17.104 194.188 17.112 194.316 17.112L195.072 17.088C195.192 17.072 195.34 17.064 195.516 17.064H195.828C195.988 17.064 196.096 17.08 196.152 17.112C196.208 17.144 196.236 17.224 196.236 17.352V18.3C196.236 18.46 196.232 18.588 196.224 18.684L196.212 18.972C196.212 19.1 196.204 19.292 196.188 19.548L196.176 19.752L196.188 19.944L196.068 23.748C196.068 23.772 196.044 23.824 195.996 23.904C195.948 23.968 195.9 24 195.852 24H195.012C194.7 24 194.392 23.988 194.088 23.964C193.888 23.956 193.588 23.952 193.188 23.952H192.984C192.872 23.952 192.796 23.912 192.756 23.832C192.724 23.728 192.704 23.592 192.696 23.424L192.576 21.444H192.456C192.264 21.444 192.124 21.44 192.036 21.432C191.956 21.416 191.916 21.408 191.916 21.408H191.424C191.392 21.408 191.372 21.42 191.364 21.444C191.356 21.468 191.352 21.496 191.352 21.528C191.352 21.552 191.352 21.572 191.352 21.588V23.58V23.808C191.352 23.832 191.348 23.856 191.34 23.88C191.332 23.896 191.328 23.912 191.328 23.928C191.32 23.952 191.3 23.964 191.268 23.964C191.26 23.964 191.248 23.968 191.232 23.976C191.216 23.984 191.196 23.992 191.172 24C190.876 24 190.596 24.012 190.332 24.036H189.492ZM198.086 23.952C198.07 23.952 198.058 23.936 198.05 23.904C197.994 23.832 197.954 23.744 197.93 23.64C197.906 23.6 197.886 23.548 197.87 23.484C197.798 23.34 197.746 23.14 197.714 22.884C197.682 22.516 197.666 22.224 197.666 22.008C197.658 21.912 197.654 21.78 197.654 21.612V21.324C197.654 21.084 197.65 20.896 197.642 20.76C197.634 20.616 197.63 20.332 197.63 19.908C197.63 18.772 197.654 17.896 197.702 17.28C197.702 17.184 197.838 17.112 198.11 17.064H198.47H198.77C199.226 17.064 199.566 17.072 199.79 17.088C200.126 17.112 200.466 17.124 200.81 17.124C200.89 17.124 200.95 17.12 200.99 17.112H201.17L201.23 17.16C201.494 17.104 201.766 17.068 202.046 17.052C202.326 17.036 202.666 17.028 203.066 17.028C203.082 17.028 203.102 17.04 203.126 17.064H203.51C203.574 17.064 203.622 17.1 203.654 17.172C203.694 17.244 203.726 17.348 203.75 17.484C203.782 17.588 203.806 17.716 203.822 17.868C203.854 18.068 203.882 18.2 203.906 18.264C203.906 18.488 203.866 18.6 203.786 18.6C203.778 18.6 203.766 18.588 203.75 18.564L203.702 18.552C203.662 18.544 203.618 18.548 203.57 18.564C203.522 18.588 203.47 18.6 203.414 18.6C203.366 18.6 203.326 18.588 203.294 18.564C203.278 18.556 203.242 18.552 203.186 18.552C203.114 18.552 203.03 18.564 202.934 18.588C202.902 18.596 202.838 18.608 202.742 18.624C202.654 18.64 202.55 18.648 202.43 18.648C202.086 18.648 201.838 18.656 201.686 18.672C201.598 18.68 201.514 18.704 201.434 18.744V18.72C201.402 18.72 201.374 18.76 201.35 18.84C201.294 18.976 201.258 19.164 201.242 19.404C201.234 19.476 201.23 19.556 201.23 19.644C201.23 19.732 201.242 19.792 201.266 19.824C201.298 19.856 201.346 19.872 201.41 19.872C201.458 19.872 201.498 19.856 201.53 19.824C201.546 19.824 201.566 19.828 201.59 19.836C201.614 19.844 201.634 19.856 201.65 19.872H202.67C202.678 19.856 202.69 19.844 202.706 19.836C202.722 19.828 202.738 19.824 202.754 19.824C202.834 19.824 202.894 19.836 202.934 19.86C202.982 19.884 203.078 19.908 203.222 19.932C203.302 19.932 203.358 19.956 203.39 20.004C203.43 20.06 203.45 20.112 203.45 20.16L203.702 20.952C203.726 21.08 203.606 21.164 203.342 21.204C203.19 21.236 202.898 21.252 202.466 21.252H201.95H201.59C201.478 21.252 201.394 21.26 201.338 21.276C201.282 21.284 201.246 21.312 201.23 21.36C201.198 21.4 201.182 21.464 201.182 21.552V21.6C201.182 21.64 201.186 21.668 201.194 21.684L201.182 21.948C201.174 22.004 201.17 22.088 201.17 22.2V22.32V22.428V22.5C201.53 22.5 201.898 22.488 202.274 22.464C202.642 22.44 203.006 22.428 203.366 22.428C203.39 22.428 203.41 22.448 203.426 22.488C203.442 22.52 203.45 22.56 203.45 22.608C203.466 22.656 203.474 22.708 203.474 22.764C203.49 22.884 203.514 22.996 203.546 23.1L203.63 23.448V23.688V23.724V23.82L203.534 23.904H203.45H203.414C203.326 23.904 203.27 23.9 203.246 23.892C203.222 23.876 203.194 23.868 203.162 23.868C203.146 23.876 203.122 23.888 203.09 23.904C203.058 23.92 203.03 23.936 203.006 23.952V23.892L202.862 23.904H202.682C202.65 23.904 202.626 23.896 202.61 23.88L202.514 23.868C202.218 23.868 202.01 23.896 201.89 23.952H198.086Z" fill="#F9B119"/>
<path d="M82.46 46.02C82.2867 46.02 82.1667 45.8867 82.1 45.62C82.0867 45.58 82.08 45.5133 82.08 45.42C82.08 45.2867 82.1067 45.0867 82.16 44.82C82.1867 44.6467 82.2067 44.5133 82.22 44.42C82.2467 44.3133 82.2667 44.2333 82.28 44.18C82.68 42.3 83.0733 40.6467 83.46 39.22L84.86 32.9C84.86 32.8733 84.88 32.8333 84.92 32.78C84.96 32.7267 85.0067 32.6933 85.06 32.68H85.16C85.16 32.6933 85.18 32.7 85.22 32.7C85.38 32.7 85.56 32.68 85.76 32.64C85.96 32.6 86.14 32.58 86.3 32.58C86.5933 32.58 86.8667 32.6 87.12 32.64C87.24 32.64 87.3733 32.6467 87.52 32.66C87.6667 32.6733 87.82 32.68 87.98 32.68C88.0333 32.68 88.0933 32.6667 88.16 32.64H88.52H88.98L89.46 32.62C89.5533 32.6067 89.6667 32.6 89.8 32.6C89.9067 32.6 89.96 32.5933 89.96 32.58H90.28H90.96H91.8C92.5467 32.58 93.04 32.5933 93.28 32.62C93.32 32.62 93.3733 32.6267 93.44 32.64C93.52 32.64 93.5667 32.6533 93.58 32.68C93.6733 32.68 93.7667 32.6733 93.86 32.66C93.9533 32.6467 94.04 32.64 94.12 32.64C94.3067 32.6 94.4867 32.58 94.66 32.58C94.74 32.58 94.82 32.6 94.9 32.64C94.98 32.68 95.0667 32.7 95.16 32.7L95.26 32.68H95.32C95.36 32.7067 95.4 32.7467 95.44 32.8C95.4933 32.84 95.52 32.8733 95.52 32.9L96.92 39.22C97.3467 40.78 97.7333 42.4333 98.08 44.18C98.08 44.26 98.1067 44.3467 98.16 44.44C98.1733 44.5333 98.1933 44.66 98.22 44.82C98.2467 44.98 98.26 45.1133 98.26 45.22C98.2733 45.2733 98.28 45.3467 98.28 45.44C98.28 45.6267 98.24 45.78 98.16 45.9C98.1067 45.98 98.0267 46.02 97.92 46.02H97.66C97.46 46.02 97.3067 46.0133 97.2 46H96.68H96.18H95.78C95.6733 46 95.62 45.9933 95.62 45.98H94.36V45.94C94.3067 45.9133 94.24 45.9 94.16 45.9C94.16 45.9 94.1533 45.9067 94.14 45.92C94.14 45.92 94.1333 45.9267 94.12 45.94C94.12 45.9667 94.1067 45.98 94.08 45.98H94.02H93.86C93.7933 45.9533 93.66 45.94 93.46 45.94C93.06 45.9133 92.7467 45.9 92.52 45.9C92.44 45.78 92.3533 45.54 92.26 45.18C92.18 44.82 92.0933 44.42 92 43.98C91.9733 43.7667 91.9467 43.62 91.92 43.54C91.64 43.5933 91.2733 43.62 90.82 43.62H90.2H89.62L89.48 44.26C89.3067 45.14 89.1667 45.6867 89.06 45.9C89.0067 45.9 88.94 45.9133 88.86 45.94C88.8333 45.9533 88.8067 45.9667 88.78 45.98C88.7667 45.98 88.76 45.98 88.76 45.98H88.68C88.6 45.98 88.54 45.9667 88.5 45.94C88.4733 45.9133 88.44 45.9 88.4 45.9L87.5 45.94H87.18H86.88C86.8267 45.9667 86.76 45.98 86.68 45.98H86.6H84.76H84.58C84.4333 45.9933 84.1333 46 83.68 46H83.16C83.0533 46.0133 82.9 46.02 82.7 46.02H82.46ZM91.7 41.12C91.6067 40.4667 91.56 40.14 91.56 40.14C91.52 39.9533 91.4533 39.6 91.36 39.08C91.3333 38.9467 91.2667 38.5867 91.16 38C91.0533 37.36 91 37.04 91 37.04C90.96 36.7733 90.92 36.54 90.88 36.34L90.86 36.08C90.82 36.0133 90.8 35.9533 90.8 35.9L90.78 35.78C90.7667 35.8067 90.76 35.8467 90.76 35.9C90.76 35.9533 90.7467 35.9867 90.72 36V36.08L90.68 36.34C90.6667 36.4333 90.6467 36.54 90.62 36.66C90.6067 36.7667 90.5867 36.8867 90.56 37.02L90.46 37.58C90.3133 38.42 90.2267 38.9067 90.2 39.04C90.1867 39.1867 90.1533 39.4067 90.1 39.7C90.0733 39.7933 90.0467 39.9333 90.02 40.12L89.86 41.04H90.88L91.02 41H91.06C91.22 41 91.34 41.0133 91.42 41.04C91.4733 41.04 91.52 41.0533 91.56 41.08C91.6133 41.0933 91.66 41.1067 91.7 41.12ZM101.079 46.06C100.879 46.06 100.746 45.94 100.679 45.7C100.639 45.5667 100.619 45.3267 100.619 44.98C100.619 43.9533 100.606 43.06 100.579 42.3C100.539 41.14 100.519 39.9333 100.519 38.68V34.84C100.519 34.7333 100.566 34.6333 100.659 34.54C100.766 34.4467 100.873 34.4 100.979 34.4C101.939 34.4 102.606 34.4067 102.979 34.42L104.439 34.44C104.839 34.44 105.506 34.4267 106.439 34.4C106.919 34.3867 107.713 34.38 108.819 34.38C109.633 34.38 110.333 34.48 110.919 34.68C111.666 34.92 112.299 35.3067 112.819 35.84C113.353 36.48 113.619 37.3267 113.619 38.38C113.619 40.1133 113.173 41.3933 112.279 42.22C111.466 42.9533 110.286 43.32 108.739 43.32H106.359C106.359 43.72 106.346 43.96 106.319 44.04C106.319 44.1333 106.313 44.2 106.299 44.24C106.286 44.28 106.279 44.3067 106.279 44.32C106.279 44.36 106.293 44.4 106.319 44.44V44.72L106.359 44.98V45.12C106.359 45.48 106.279 45.7333 106.119 45.88C106.053 45.9333 105.953 45.9667 105.819 45.98C105.699 45.9933 105.566 46 105.419 46H104.339L103.779 46.02C103.219 46.0467 102.766 46.06 102.419 46.06H101.079ZM107.319 41.22C107.533 41.22 107.706 40.9933 107.839 40.54C107.933 40.2333 108.006 39.76 108.059 39.12C108.073 38.8 108.079 38.4267 108.079 38V37.82C108.079 37.5267 108.046 37.2467 107.979 36.98C107.913 36.58 107.799 36.3133 107.639 36.18C107.546 36.0867 107.439 36.04 107.319 36.04C107.213 36.04 107.119 36.1067 107.039 36.24C106.893 36.52 106.786 36.9867 106.719 37.64C106.653 38.0133 106.619 38.3333 106.619 38.6C106.553 39.2133 106.519 40.0733 106.519 41.18C106.519 41.18 106.526 41.1867 106.539 41.2C106.566 41.2 106.593 41.2 106.619 41.2C106.633 41.2133 106.706 41.22 106.839 41.22H107.319ZM115.904 46.06C115.704 46.06 115.57 45.94 115.504 45.7C115.464 45.5667 115.444 45.3267 115.444 44.98C115.444 43.9533 115.43 43.06 115.404 42.3C115.364 41.14 115.344 39.9333 115.344 38.68V34.84C115.344 34.7333 115.39 34.6333 115.484 34.54C115.59 34.4467 115.697 34.4 115.804 34.4C116.764 34.4 117.43 34.4067 117.804 34.42L119.264 34.44C119.664 34.44 120.33 34.4267 121.264 34.4C121.744 34.3867 122.537 34.38 123.644 34.38C124.457 34.38 125.157 34.48 125.744 34.68C126.49 34.92 127.124 35.3067 127.644 35.84C128.177 36.48 128.444 37.3267 128.444 38.38C128.444 40.1133 127.997 41.3933 127.104 42.22C126.29 42.9533 125.11 43.32 123.564 43.32H121.184C121.184 43.72 121.17 43.96 121.144 44.04C121.144 44.1333 121.137 44.2 121.124 44.24C121.11 44.28 121.104 44.3067 121.104 44.32C121.104 44.36 121.117 44.4 121.144 44.44V44.72L121.184 44.98V45.12C121.184 45.48 121.104 45.7333 120.944 45.88C120.877 45.9333 120.777 45.9667 120.644 45.98C120.524 45.9933 120.39 46 120.244 46H119.164L118.604 46.02C118.044 46.0467 117.59 46.06 117.244 46.06H115.904ZM122.144 41.22C122.357 41.22 122.53 40.9933 122.664 40.54C122.757 40.2333 122.83 39.76 122.884 39.12C122.897 38.8 122.904 38.4267 122.904 38V37.82C122.904 37.5267 122.87 37.2467 122.804 36.98C122.737 36.58 122.624 36.3133 122.464 36.18C122.37 36.0867 122.264 36.04 122.144 36.04C122.037 36.04 121.944 36.1067 121.864 36.24C121.717 36.52 121.61 36.9867 121.544 37.64C121.477 38.0133 121.444 38.3333 121.444 38.6C121.377 39.2133 121.344 40.0733 121.344 41.18C121.344 41.18 121.35 41.1867 121.364 41.2C121.39 41.2 121.417 41.2 121.444 41.2C121.457 41.2133 121.53 41.22 121.664 41.22H122.144ZM140.884 46.48C139.937 46.48 138.984 46.3733 138.024 46.16C137.077 45.9333 136.297 45.6267 135.684 45.24C135.524 44.76 135.404 44.28 135.324 43.8C135.244 43.32 135.144 42.6333 135.024 41.74V41.68C135.051 41.52 135.137 41.4 135.284 41.32C135.791 41.6267 136.277 41.86 136.744 42.02C137.211 42.1667 137.724 42.24 138.284 42.24H138.764L139.084 42.26C139.391 42.26 139.704 42.2133 140.024 42.12C140.197 42.0533 140.317 41.9267 140.384 41.74L139.324 41.22C138.511 40.8333 137.777 40.42 137.124 39.98C136.444 39.4867 135.957 38.86 135.664 38.1C135.517 37.6867 135.444 37.2333 135.444 36.74C135.444 35.54 135.811 34.5733 136.544 33.84C137.184 33.1867 138.051 32.72 139.144 32.44C140.091 32.2133 141.131 32.1 142.264 32.1C142.931 32.1 143.851 32.1733 145.024 32.32C145.144 32.3467 145.311 32.3733 145.524 32.4L146.124 32.52C146.577 32.6 146.911 32.64 147.124 32.64C147.137 32.64 147.157 32.66 147.184 32.7C147.224 32.74 147.257 32.7733 147.284 32.8C147.337 32.8933 147.391 32.94 147.444 32.94H147.464H147.484L147.524 33.36C147.524 33.56 147.544 33.7733 147.584 34C147.624 34.3333 147.644 34.6933 147.644 35.08C147.644 35.4133 147.624 35.6533 147.584 35.8C147.517 36.0667 147.397 36.26 147.224 36.38L145.364 36.14H145.164H144.884C144.431 36.14 143.911 36.1867 143.324 36.28L142.664 36.42C142.504 36.4467 142.424 36.4733 142.424 36.5C142.424 36.82 142.631 37.12 143.044 37.4C143.244 37.5067 143.444 37.6 143.644 37.68C143.844 37.7467 143.971 37.7933 144.024 37.82C145.011 38.1 145.864 38.5867 146.584 39.28C146.917 39.6 147.177 39.94 147.364 40.3C147.551 40.66 147.644 41.0067 147.644 41.34C147.644 41.54 147.617 41.7533 147.564 41.98C147.471 42.98 147.091 43.8467 146.424 44.58C145.771 45.2333 144.951 45.7133 143.964 46.02C143.111 46.3267 142.084 46.48 140.884 46.48ZM155.558 46.06H154.638H153.598H152.278C152.158 45.8733 152.078 45.5333 152.038 45.04C151.985 44.6 151.958 43.96 151.958 43.12L151.978 40.92C151.991 40.3867 151.998 39.54 151.998 38.38L151.938 38.32H149.958C149.665 38.32 149.471 37.9867 149.378 37.32C149.325 36.96 149.298 36.4333 149.298 35.74V35.48C149.325 35.3867 149.338 35.24 149.338 35.04V34.64L149.358 34.48L149.438 34.4L149.798 34.42H150.198C150.785 34.42 151.231 34.4133 151.538 34.4H152.838H153.198H153.878H154.738H155.598C155.771 34.4133 156.018 34.42 156.338 34.42H156.838C156.891 34.3933 156.978 34.38 157.098 34.38C157.191 34.3533 157.278 34.34 157.358 34.34C157.611 34.34 157.805 34.3533 157.938 34.38C158.205 34.4067 158.405 34.42 158.538 34.42L159.058 34.4H159.838C160.238 34.4 160.511 34.4067 160.658 34.42L160.938 34.44C160.951 34.4533 160.971 34.4733 160.998 34.5C161.025 34.5133 161.038 34.5267 161.038 34.54V37.94C161.038 38.02 160.991 38.1067 160.898 38.2C160.818 38.2933 160.738 38.3533 160.658 38.38C160.218 38.2867 159.645 38.24 158.938 38.24H158.178C157.978 38.24 157.845 38.4933 157.778 39C157.751 39.1467 157.738 39.36 157.738 39.64V40.24C157.738 40.5067 157.745 40.7067 157.758 40.84V41.4C157.758 41.9467 157.731 42.4533 157.678 42.92C157.651 43.2667 157.638 43.52 157.638 43.68C157.611 43.84 157.598 44.06 157.598 44.34C157.598 44.74 157.585 45.0733 157.558 45.34C157.545 45.7533 157.391 45.9733 157.098 46C156.778 46.04 156.591 46.06 156.538 46.06H155.558ZM168.705 46.5C168.598 46.5 168.451 46.4867 168.265 46.46C168.171 46.4333 168.025 46.42 167.825 46.42C167.318 46.42 166.691 46.3067 165.945 46.08H165.805C165.711 46.08 165.611 46.0533 165.505 46C165.478 45.9733 165.445 45.9533 165.405 45.94C165.365 45.9133 165.318 45.88 165.265 45.84L164.845 45.6C164.445 45.3733 164.091 45.06 163.785 44.66C163.478 44.2467 163.231 43.7933 163.045 43.3C162.685 42.3933 162.505 41.4667 162.505 40.52C162.505 39.4667 162.718 38.4533 163.145 37.48C163.598 36.4533 164.205 35.64 164.965 35.04C165.805 34.3733 166.738 34.04 167.765 34.04C168.085 34.04 168.331 34.0533 168.505 34.08C168.505 34.0533 168.525 34.04 168.565 34.04H168.625C169.558 34.04 170.391 34.0733 171.125 34.14C171.751 34.2333 172.331 34.4267 172.865 34.72C173.931 35.4267 174.698 36.2 175.165 37.04C175.658 37.9733 175.905 39.0733 175.905 40.34C175.905 41.6067 175.605 42.7933 175.005 43.9L174.805 44.22C174.751 44.3 174.718 44.34 174.705 44.34L174.645 44.44L174.505 44.52C173.931 45.3733 173.065 45.9533 171.905 46.26C171.131 46.42 170.065 46.5 168.705 46.5ZM169.045 45C169.165 45 169.258 44.9267 169.325 44.78C169.485 44.54 169.618 44.0733 169.725 43.38C169.738 43.26 169.771 42.9933 169.825 42.58C169.878 42.1667 169.911 41.78 169.925 41.42C169.978 40.5133 170.005 39.9533 170.005 39.74V39.28V39.12C170.005 38.64 169.985 38.2267 169.945 37.88C169.905 37.3333 169.825 36.9 169.705 36.58C169.585 36.42 169.491 36.34 169.425 36.34C169.291 36.34 169.165 36.44 169.045 36.64C168.925 36.84 168.831 37.2067 168.765 37.74L168.345 40.94V41.34V41.6C168.385 42.16 168.405 42.5267 168.405 42.7L168.445 43.18L168.505 43.82C168.505 43.9267 168.518 44.02 168.545 44.1L168.765 44.84C168.778 44.8933 168.811 44.9333 168.865 44.96C168.931 44.9867 168.991 45 169.045 45ZM187.142 46.22C186.556 45.6467 186.056 45.0667 185.642 44.48C185.349 44.0933 184.896 43.4067 184.282 42.42L183.942 41.88C183.929 41.8667 183.916 41.86 183.902 41.86C183.902 41.8467 183.902 41.84 183.902 41.84H183.802L183.722 41.88C183.709 42.0533 183.702 42.52 183.702 43.28C183.702 43.7733 183.676 44.3533 183.622 45.02L183.602 45.62C183.549 45.7667 183.516 45.84 183.502 45.84H183.362H183.302C181.836 45.9467 180.769 46 180.102 46H179.802H179.422C179.276 46 179.169 45.9933 179.102 45.98H178.962L178.342 45.78L178.302 45.64C178.276 45.64 178.256 45.6133 178.242 45.56C178.242 45.5067 178.242 45.4667 178.242 45.44C178.202 44.88 178.169 44.4733 178.142 44.22C178.089 43.5 178.056 42.9733 178.042 42.64C178.016 42.32 178.002 42.1133 178.002 42.02L177.902 40.92L177.882 40.32C177.869 40.2 177.862 40.0333 177.862 39.82V39.64C177.889 39.5733 177.902 39.4667 177.902 39.32V38.98C177.916 38.9267 177.922 38.8667 177.922 38.8L177.902 38.64V38.44C177.902 38.3467 177.889 38.2733 177.862 38.22V38.1L177.882 37.6C177.896 37.5067 177.902 37.3667 177.902 37.18C177.929 36.78 177.942 36.4 177.942 36.04V35.84C177.929 35.8 177.922 35.7133 177.922 35.58V35.3V35.1C177.882 35.06 177.862 35.02 177.862 34.98C177.862 34.7933 178.029 34.66 178.362 34.58C178.536 34.5267 178.782 34.5 179.102 34.5C182.222 34.5 184.556 34.6067 186.102 34.82C187.622 35.0333 188.689 35.4 189.302 35.92C189.569 36.1733 189.756 36.4733 189.862 36.82C189.982 37.1533 190.042 37.5533 190.042 38.02C190.042 38.7667 189.829 39.3933 189.402 39.9C189.122 40.18 188.796 40.4133 188.422 40.6C188.502 40.8 188.736 41.2 189.122 41.8C189.202 41.8933 189.276 41.9933 189.342 42.1C189.422 42.2067 189.516 42.32 189.622 42.44C189.876 42.7867 190.169 43.1667 190.502 43.58C190.516 43.6333 190.569 43.7467 190.662 43.92C190.729 43.9467 190.762 43.98 190.762 44.02C190.776 44.0467 190.769 44.0867 190.742 44.14C190.636 44.3 190.322 44.5333 189.802 44.84C189.736 44.9067 189.656 44.9733 189.562 45.04C189.296 45.2533 188.929 45.4733 188.462 45.7C188.036 45.9267 187.669 46.0867 187.362 46.18C187.242 46.2467 187.169 46.26 187.142 46.22ZM183.502 39.18C183.676 39.18 183.909 39.1467 184.202 39.08C184.482 39 184.682 38.92 184.802 38.84C185.002 38.72 185.176 38.5867 185.322 38.44C185.469 38.2667 185.542 38.0667 185.542 37.84C185.542 37.4667 185.429 37.1667 185.202 36.94C185.002 36.78 184.756 36.7 184.462 36.7H183.602C183.602 36.8733 183.589 37.1467 183.562 37.52L183.542 37.94C183.516 38.2067 183.502 38.62 183.502 39.18ZM193.662 45.92C193.636 45.92 193.616 45.8933 193.602 45.84C193.509 45.72 193.442 45.5733 193.402 45.4C193.362 45.3333 193.329 45.2467 193.302 45.14C193.182 44.9 193.096 44.5667 193.042 44.14C192.989 43.5267 192.962 43.04 192.962 42.68C192.949 42.52 192.942 42.3 192.942 42.02V41.54C192.942 41.14 192.936 40.8267 192.922 40.6C192.909 40.36 192.902 39.8867 192.902 39.18C192.902 37.2867 192.942 35.8267 193.022 34.8C193.022 34.64 193.249 34.52 193.702 34.44H194.302H194.802C195.562 34.44 196.129 34.4533 196.502 34.48C197.062 34.52 197.629 34.54 198.202 34.54C198.336 34.54 198.436 34.5333 198.502 34.52H198.802L198.902 34.6C199.342 34.5067 199.796 34.4467 200.262 34.42C200.729 34.3933 201.296 34.38 201.962 34.38C201.989 34.38 202.022 34.4 202.062 34.44H202.702C202.809 34.44 202.889 34.5 202.942 34.62C203.009 34.74 203.062 34.9133 203.102 35.14C203.156 35.3133 203.196 35.5267 203.222 35.78C203.276 36.1133 203.322 36.3333 203.362 36.44C203.362 36.8133 203.296 37 203.162 37C203.149 37 203.129 36.98 203.102 36.94L203.022 36.92C202.956 36.9067 202.882 36.9133 202.802 36.94C202.722 36.98 202.636 37 202.542 37C202.462 37 202.396 36.98 202.342 36.94C202.316 36.9267 202.256 36.92 202.162 36.92C202.042 36.92 201.902 36.94 201.742 36.98C201.689 36.9933 201.582 37.0133 201.422 37.04C201.276 37.0667 201.102 37.08 200.902 37.08C200.329 37.08 199.916 37.0933 199.662 37.12C199.516 37.1333 199.376 37.1733 199.242 37.24V37.2C199.189 37.2 199.142 37.2667 199.102 37.4C199.009 37.6267 198.949 37.94 198.922 38.34C198.909 38.46 198.902 38.5933 198.902 38.74C198.902 38.8867 198.922 38.9867 198.962 39.04C199.016 39.0933 199.096 39.12 199.202 39.12C199.282 39.12 199.349 39.0933 199.402 39.04C199.429 39.04 199.462 39.0467 199.502 39.06C199.542 39.0733 199.576 39.0933 199.602 39.12H201.302C201.316 39.0933 201.336 39.0733 201.362 39.06C201.389 39.0467 201.416 39.04 201.442 39.04C201.576 39.04 201.676 39.06 201.742 39.1C201.822 39.14 201.982 39.18 202.222 39.22C202.356 39.22 202.449 39.26 202.502 39.34C202.569 39.4333 202.602 39.52 202.602 39.6L203.022 40.92C203.062 41.1333 202.862 41.2733 202.422 41.34C202.169 41.3933 201.682 41.42 200.962 41.42H200.102H199.502C199.316 41.42 199.176 41.4333 199.082 41.46C198.989 41.4733 198.929 41.52 198.902 41.6C198.849 41.6667 198.822 41.7733 198.822 41.92V42C198.822 42.0667 198.829 42.1133 198.842 42.14L198.822 42.58C198.809 42.6733 198.802 42.8133 198.802 43V43.2V43.38V43.5C199.402 43.5 200.016 43.48 200.642 43.44C201.256 43.4 201.862 43.38 202.462 43.38C202.502 43.38 202.536 43.4133 202.562 43.48C202.589 43.5333 202.602 43.6 202.602 43.68C202.629 43.76 202.642 43.8467 202.642 43.94C202.669 44.14 202.709 44.3267 202.762 44.5L202.902 45.08V45.48V45.54V45.7L202.742 45.84H202.602H202.542C202.396 45.84 202.302 45.8333 202.262 45.82C202.222 45.7933 202.176 45.78 202.122 45.78C202.096 45.7933 202.056 45.8133 202.002 45.84C201.949 45.8667 201.902 45.8933 201.862 45.92V45.82L201.622 45.84H201.322C201.269 45.84 201.229 45.8267 201.202 45.8L201.042 45.78C200.549 45.78 200.202 45.8267 200.002 45.92H193.662Z" fill="#F9B119"/>
<rect x="1.5" y="1.5" width="253" height="60" rx="30" stroke="#F9B119" stroke-width="3"/>
<defs>
<radialGradient id="paint0_radial_72_102" cx="0" cy="0" r="1" gradientUnits="userSpaceOnUse" gradientTransform="translate(63.4848 34.6672) rotate(89.9067) scale(9.33283 7.73942)">
<stop stop-color="#F6EE65"/>
<stop offset="1" stop-color="#F9B119"/>
</radialGradient>
<clipPath id="clip0_72_102">
<rect width="25" height="25" fill="white" transform="translate(51 19)"/>
</clipPath>
</defs>
</svg>
