<svg width="256" height="63" viewBox="0 0 256 63" fill="none" xmlns="http://www.w3.org/2000/svg">
<rect x="1.5" y="1.5" width="253" height="60" rx="30" fill="#351A14"/>
<g clip-path="url(#clip0_72_108)">
<path d="M50.4486 19.6354L64.1194 27.4958L61.1892 30.426L50.4486 19.6354ZM47.6163 19L60.1653 31.5L47.6173 44C47.2867 43.856 47.0073 43.6157 46.8155 43.3103C46.6237 43.005 46.5285 42.6489 46.5423 42.2885V42.2917V20.7094L46.5413 20.6417C46.5413 19.9115 46.9788 19.2833 47.6059 19.0052L47.6173 19.001L47.6163 19ZM68.3684 30.0354C68.7996 30.3552 69.0757 30.8635 69.0757 31.4354L69.0746 31.5031V31.5C69.1011 31.7795 69.0547 32.061 68.9399 32.3172C68.825 32.5733 68.6457 32.7953 68.4194 32.9615L68.4153 32.9646L65.485 34.624L62.3121 31.5L65.4861 28.326L68.3684 30.0354ZM50.4486 43.3646L61.1903 32.574L64.1205 35.5042L50.4486 43.3646Z" fill="url(#paint0_radial_72_108)"/>
</g>
<path d="M82.5505 24C82.2465 23.992 81.7225 23.988 80.9785 23.988C80.8665 23.988 80.7905 23.916 80.7505 23.772C80.7265 23.692 80.7145 23.552 80.7145 23.352C80.7145 22.992 80.7065 22.676 80.6905 22.404C80.6905 22.156 80.6825 21.704 80.6665 21.048L80.6545 19.608V17.34C80.6545 17.284 80.6825 17.224 80.7385 17.16C80.8025 17.096 80.8625 17.064 80.9185 17.064L81.6145 17.076C81.7265 17.084 81.8905 17.088 82.1065 17.088C82.3385 17.096 82.6265 17.1 82.9705 17.1C83.4825 17.1 83.8825 17.096 84.1705 17.088C84.4505 17.072 84.9185 17.064 85.5745 17.064C86.0225 17.064 86.4345 17.144 86.8105 17.304C87.2825 17.504 87.6585 17.816 87.9385 18.24C88.2585 18.736 88.4185 19.38 88.4185 20.172C88.4185 20.884 88.3385 21.48 88.1785 21.96C88.0265 22.44 87.7785 22.828 87.4345 23.124C87.0825 23.428 86.6185 23.652 86.0425 23.796C85.4745 23.932 84.7625 24 83.9065 24H82.5505ZM83.9905 22.644C84.1665 22.644 84.2825 22.636 84.3385 22.62C84.3945 22.604 84.4345 22.584 84.4585 22.56C84.5785 22.44 84.6905 22.084 84.7945 21.492C84.8825 20.94 84.9265 20.424 84.9265 19.944V19.752C84.9265 19.472 84.9065 19.204 84.8665 18.948C84.8345 18.636 84.7705 18.38 84.6745 18.18C84.6185 18.092 84.5465 18.048 84.4585 18.048C84.3865 18.048 84.2985 18.068 84.1945 18.108L84.1105 18.144C84.1105 18.328 84.1025 18.74 84.0865 19.38L84.0745 20.124C84.0745 20.284 84.0705 20.408 84.0625 20.496L84.0505 20.868L83.9905 22.644ZM93.2062 24.3C93.1422 24.3 93.0542 24.292 92.9422 24.276C92.8862 24.26 92.7982 24.252 92.6782 24.252C92.3742 24.252 91.9982 24.184 91.5502 24.048H91.4662C91.4102 24.048 91.3502 24.032 91.2862 24C91.2702 23.984 91.2502 23.972 91.2262 23.964C91.2022 23.948 91.1742 23.928 91.1422 23.904L90.8902 23.76C90.6502 23.624 90.4382 23.436 90.2542 23.196C90.0702 22.948 89.9222 22.676 89.8102 22.38C89.5942 21.836 89.4862 21.28 89.4862 20.712C89.4862 20.08 89.6142 19.472 89.8702 18.888C90.1422 18.272 90.5062 17.784 90.9622 17.424C91.4662 17.024 92.0262 16.824 92.6422 16.824C92.8342 16.824 92.9822 16.832 93.0862 16.848C93.0862 16.832 93.0982 16.824 93.1222 16.824H93.1582C93.7182 16.824 94.2182 16.844 94.6582 16.884C95.0342 16.94 95.3822 17.056 95.7022 17.232C96.3422 17.656 96.8022 18.12 97.0822 18.624C97.3782 19.184 97.5262 19.844 97.5262 20.604C97.5262 21.364 97.3462 22.076 96.9862 22.74L96.8662 22.932C96.8342 22.98 96.8142 23.004 96.8062 23.004L96.7702 23.064L96.6862 23.112C96.3422 23.624 95.8222 23.972 95.1262 24.156C94.6622 24.252 94.0222 24.3 93.2062 24.3ZM93.4102 23.4C93.4822 23.4 93.5382 23.356 93.5782 23.268C93.6742 23.124 93.7542 22.844 93.8182 22.428C93.8262 22.356 93.8462 22.196 93.8782 21.948C93.9102 21.7 93.9302 21.468 93.9382 21.252C93.9702 20.708 93.9862 20.372 93.9862 20.244V19.968V19.872C93.9862 19.584 93.9742 19.336 93.9502 19.128C93.9262 18.8 93.8782 18.54 93.8062 18.348C93.7342 18.252 93.6782 18.204 93.6382 18.204C93.5582 18.204 93.4822 18.264 93.4102 18.384C93.3382 18.504 93.2822 18.724 93.2422 19.044L92.9902 20.964V21.204V21.36C93.0142 21.696 93.0262 21.916 93.0262 22.02L93.0502 22.308L93.0862 22.692C93.0862 22.756 93.0942 22.812 93.1102 22.86L93.2422 23.304C93.2502 23.336 93.2702 23.36 93.3022 23.376C93.3422 23.392 93.3782 23.4 93.4102 23.4ZM102.001 24C101.753 24 101.561 23.988 101.425 23.964C101.233 23.948 101.081 23.94 100.969 23.94C100.905 23.94 100.817 23.948 100.705 23.964C100.649 23.98 100.557 23.988 100.429 23.988C100.397 23.988 100.365 23.984 100.333 23.976C100.309 23.968 100.285 23.964 100.261 23.964C100.205 23.94 100.153 23.928 100.105 23.928L99.9968 23.94C99.9248 23.932 99.8888 23.892 99.8888 23.82L99.2048 20.64C99.0048 19.728 98.8368 18.896 98.7008 18.144C98.6528 18.072 98.6248 17.98 98.6168 17.868C98.6088 17.828 98.6048 17.768 98.6048 17.688V17.52C98.6048 17.424 98.6208 17.348 98.6528 17.292C98.6848 17.236 98.7288 17.208 98.7848 17.208H98.9168H99.1448C99.2008 17.216 99.2888 17.22 99.4088 17.22L99.8648 17.232H99.9488H100.381C100.397 17.24 100.413 17.244 100.429 17.244C100.445 17.244 100.457 17.244 100.465 17.244L100.477 17.28C100.509 17.28 100.529 17.268 100.537 17.244L100.621 17.232H100.657C100.665 17.232 100.677 17.232 100.693 17.232C100.709 17.232 100.725 17.236 100.741 17.244C100.797 17.244 100.861 17.248 100.933 17.256C101.005 17.264 101.089 17.268 101.185 17.268C101.241 17.276 101.321 17.28 101.425 17.28C101.465 17.376 101.529 17.644 101.617 18.084C101.649 18.204 101.689 18.416 101.737 18.72L101.869 19.428L101.881 19.524C101.889 19.54 101.901 19.608 101.917 19.728L101.965 19.98L102.001 20.232C102.017 20.28 102.025 20.32 102.025 20.352C102.033 20.376 102.037 20.4 102.037 20.424C102.037 20.448 102.037 20.468 102.037 20.484C102.045 20.492 102.049 20.5 102.049 20.508V20.544C102.057 20.56 102.061 20.58 102.061 20.604C102.077 20.604 102.085 20.624 102.085 20.664L102.097 20.604C102.097 20.572 102.105 20.54 102.121 20.508C102.121 20.484 102.129 20.456 102.145 20.424C102.145 20.392 102.153 20.328 102.169 20.232L102.217 19.98C102.233 19.868 102.249 19.784 102.265 19.728C102.265 19.656 102.273 19.588 102.289 19.524C102.289 19.492 102.289 19.472 102.289 19.464C102.297 19.448 102.301 19.436 102.301 19.428L102.445 18.72L102.505 18.408C102.561 18.048 102.613 17.776 102.661 17.592C102.677 17.52 102.713 17.416 102.769 17.28H102.961L103.177 17.268C103.177 17.252 103.189 17.24 103.213 17.232C103.237 17.216 103.265 17.208 103.297 17.208H103.477H103.765L104.329 17.22H104.365C104.365 17.212 104.369 17.208 104.377 17.208C104.409 17.208 104.429 17.212 104.437 17.22L104.461 17.232H105.085L105.181 17.244C105.181 17.252 105.185 17.26 105.193 17.268C105.201 17.268 105.205 17.272 105.205 17.28L105.265 17.244C105.265 17.244 105.269 17.244 105.277 17.244C105.293 17.236 105.309 17.232 105.325 17.232H105.361C105.369 17.232 105.381 17.236 105.397 17.244C105.413 17.244 105.437 17.244 105.469 17.244C105.533 17.268 105.585 17.28 105.625 17.28C105.689 17.408 105.753 17.648 105.817 18C105.849 18.12 105.889 18.308 105.937 18.564L106.069 19.224L106.081 19.344C106.089 19.368 106.097 19.408 106.105 19.464C106.113 19.52 106.117 19.56 106.117 19.584C106.125 19.632 106.133 19.692 106.141 19.764C106.157 19.828 106.165 19.884 106.165 19.932L106.225 20.244C106.225 20.324 106.233 20.404 106.249 20.484L106.261 20.604C106.261 20.644 106.269 20.676 106.285 20.7V20.76L106.297 20.7C106.297 20.668 106.305 20.636 106.321 20.604C106.321 20.596 106.321 20.584 106.321 20.568C106.329 20.544 106.337 20.516 106.345 20.484L106.369 20.244L106.417 19.932C106.449 19.772 106.465 19.656 106.465 19.584L106.501 19.344C106.517 19.304 106.525 19.264 106.525 19.224C106.573 18.936 106.613 18.716 106.645 18.564C106.725 18.108 106.797 17.768 106.861 17.544C106.877 17.488 106.897 17.436 106.921 17.388C106.945 17.332 106.961 17.296 106.969 17.28C107.065 17.28 107.161 17.268 107.257 17.244C107.329 17.244 107.385 17.24 107.425 17.232H107.461L107.485 17.244V17.28C107.541 17.28 107.573 17.268 107.581 17.244C107.581 17.244 107.585 17.244 107.593 17.244C107.601 17.244 107.605 17.24 107.605 17.232H108.145H108.205L108.649 17.22C108.777 17.22 108.869 17.216 108.925 17.208H109.165H109.297C109.409 17.208 109.465 17.312 109.465 17.52C109.441 17.584 109.421 17.652 109.405 17.724C109.397 17.796 109.389 17.848 109.381 17.88C109.373 17.96 109.369 18.048 109.369 18.144C109.193 18.96 108.965 19.892 108.685 20.94L107.977 23.82C107.929 23.828 107.897 23.852 107.881 23.892C107.873 23.9 107.869 23.912 107.869 23.928C107.869 23.936 107.869 23.94 107.869 23.94L107.785 23.928C107.737 23.928 107.697 23.94 107.665 23.964C107.649 23.964 107.629 23.968 107.605 23.976C107.581 23.984 107.561 23.988 107.545 23.988C107.425 23.988 107.333 23.98 107.269 23.964C107.157 23.948 107.069 23.94 107.005 23.94C106.973 23.956 106.945 23.964 106.921 23.964C106.841 23.988 106.733 24 106.597 24H106.405C106.173 24 105.985 23.988 105.841 23.964C105.665 23.948 105.513 23.94 105.385 23.94C105.353 23.94 105.297 23.948 105.217 23.964C105.177 23.98 105.121 23.988 105.049 23.988C105.025 23.988 105.001 23.984 104.977 23.976C104.961 23.968 104.941 23.964 104.917 23.964C104.885 23.94 104.845 23.928 104.797 23.928L104.701 23.94C104.637 23.932 104.605 23.892 104.605 23.82L103.945 20.484L103.261 23.82C103.205 23.836 103.177 23.86 103.177 23.892C103.169 23.9 103.165 23.912 103.165 23.928C103.165 23.936 103.165 23.94 103.165 23.94L103.069 23.928C103.045 23.928 103.025 23.94 103.009 23.964C102.993 23.964 102.981 23.968 102.973 23.976C102.965 23.984 102.953 23.988 102.937 23.988C102.785 23.988 102.681 23.98 102.625 23.964C102.481 23.948 102.365 23.94 102.277 23.94C102.277 23.972 102.245 23.988 102.181 23.988C102.157 23.996 102.097 24 102.001 24ZM111.805 24.036H111.613H111.433H111.337L110.869 23.904L110.845 23.832C110.837 23.832 110.833 23.792 110.833 23.712C110.833 23.608 110.829 23.524 110.821 23.46L110.809 23.004C110.801 22.908 110.797 22.756 110.797 22.548C110.797 22.348 110.793 22.2 110.785 22.104V21.744C110.737 21.24 110.713 20.72 110.713 20.184V20.088V19.908C110.713 19.812 110.717 19.744 110.725 19.704V19.608V19.524C110.717 19.5 110.713 19.46 110.713 19.404V19.272V19.2V19.08V18.888C110.713 18.792 110.717 18.724 110.725 18.684V18.564L110.737 18.504V18.348C110.745 18.268 110.749 18.16 110.749 18.024C110.749 17.92 110.745 17.828 110.737 17.748L110.725 17.472L110.713 17.424C110.689 17.408 110.689 17.396 110.713 17.388C110.745 17.26 110.845 17.168 111.013 17.112C111.093 17.08 111.225 17.064 111.409 17.064C111.545 17.064 111.901 17.052 112.477 17.028C112.765 17.012 112.945 17.004 113.017 17.004C113.137 16.996 113.281 16.992 113.449 16.992C113.529 17 113.585 17.016 113.617 17.04C113.649 17.056 113.677 17.088 113.701 17.136C113.733 17.184 113.757 17.22 113.773 17.244L114.013 17.592C114.005 17.584 114.105 17.728 114.313 18.024C114.505 18.336 114.737 18.688 115.009 19.08C115.049 19.144 115.097 19.216 115.153 19.296C115.209 19.376 115.269 19.468 115.333 19.572V19.152C115.341 19.04 115.345 18.88 115.345 18.672C115.345 18.4 115.353 18.096 115.369 17.76C115.369 17.696 115.373 17.64 115.381 17.592C115.389 17.536 115.393 17.492 115.393 17.46C115.393 17.38 115.397 17.34 115.405 17.34C115.437 17.292 115.493 17.24 115.573 17.184C115.669 17.12 115.769 17.092 115.873 17.1H116.473H116.593C116.713 17.1 116.813 17.104 116.893 17.112H117.253C117.333 17.12 117.453 17.124 117.613 17.124H117.877H117.997C118.157 17.124 118.277 17.152 118.357 17.208C118.405 17.24 118.437 17.284 118.453 17.34C118.469 17.388 118.477 17.464 118.477 17.568C118.477 17.672 118.473 17.76 118.465 17.832C118.457 17.912 118.453 18.008 118.453 18.12V18.204C118.461 18.228 118.465 18.264 118.465 18.312V18.624L118.453 20.004V21.36V21.684C118.453 22.548 118.445 23.096 118.429 23.328L118.393 23.724C118.353 23.908 118.297 24.004 118.225 24.012C118.209 24.012 118.185 24.016 118.153 24.024C118.129 24.032 118.101 24.036 118.069 24.036C117.781 24.036 117.569 24.028 117.433 24.012H116.809H116.185H116.029C116.005 24.02 115.973 24.024 115.933 24.024C115.837 24.024 115.737 24.004 115.633 23.964C115.569 23.948 115.501 23.904 115.429 23.832L114.373 22.344C114.333 22.288 114.257 22.196 114.145 22.068L113.989 21.924C113.949 21.884 113.917 21.864 113.893 21.864C113.869 21.864 113.849 21.876 113.833 21.9C113.817 21.916 113.809 21.932 113.809 21.948V22.152C113.801 22.216 113.797 22.316 113.797 22.452V22.8C113.789 22.888 113.785 23.008 113.785 23.16V23.448V23.628C113.777 23.644 113.773 23.668 113.773 23.7C113.773 23.708 113.761 23.772 113.737 23.892C113.721 23.924 113.709 23.944 113.701 23.952C113.693 23.96 113.665 23.964 113.617 23.964C113.601 23.956 113.585 23.952 113.569 23.952C113.561 23.952 113.553 23.952 113.545 23.952C112.913 24.008 112.389 24.036 111.973 24.036H111.805ZM123.177 24.06L123.021 24.036H122.829C122.709 24.02 122.501 24.004 122.205 23.988C122.141 23.988 122.081 23.984 122.025 23.976C121.969 23.968 121.917 23.964 121.869 23.964H121.605L121.485 23.952C121.229 23.952 121.041 23.956 120.921 23.964C120.801 23.98 120.613 23.988 120.357 23.988H120.117L119.901 24L119.865 23.952V23.82V23.52V23.208V23.004V22.188C119.865 21.996 119.857 21.856 119.841 21.768V21.48L119.889 20.964C119.913 20.644 119.925 20.184 119.925 19.584C119.941 18.616 120.001 17.916 120.105 17.484C120.161 17.252 120.253 17.104 120.381 17.04L121.785 17.052C121.905 17.06 122.077 17.064 122.301 17.064H122.877C122.917 17.072 122.989 17.08 123.093 17.088C123.205 17.096 123.289 17.116 123.345 17.148C123.393 17.188 123.425 17.244 123.441 17.316C123.465 17.38 123.477 17.476 123.477 17.604L123.465 17.7V17.844C123.441 17.9 123.429 17.956 123.429 18.012C123.413 18.076 123.409 18.14 123.417 18.204V18.384C123.425 18.424 123.429 18.48 123.429 18.552L123.441 18.648V18.924L123.453 19.308C123.461 19.388 123.465 19.5 123.465 19.644C123.481 19.756 123.501 19.832 123.525 19.872C123.525 19.928 123.521 19.988 123.513 20.052C123.505 20.116 123.501 20.18 123.501 20.244C123.493 20.34 123.489 20.484 123.489 20.676C123.489 20.86 123.493 20.996 123.501 21.084C123.501 21.212 123.521 21.344 123.561 21.48C123.641 21.512 123.733 21.528 123.837 21.528C124.101 21.528 124.373 21.524 124.653 21.516C124.941 21.508 125.197 21.484 125.421 21.444C125.469 21.452 125.513 21.484 125.553 21.54C125.601 21.596 125.625 21.644 125.625 21.684L125.541 23.748C125.525 23.796 125.493 23.828 125.445 23.844C125.309 23.908 125.121 23.948 124.881 23.964C124.561 24.012 124.349 24.036 124.245 24.036H124.041C123.881 24.036 123.761 24.04 123.681 24.048C123.521 24.064 123.409 24.072 123.345 24.072L123.177 24.06ZM130.191 24.3C130.127 24.3 130.039 24.292 129.927 24.276C129.871 24.26 129.783 24.252 129.663 24.252C129.359 24.252 128.983 24.184 128.535 24.048H128.451C128.395 24.048 128.335 24.032 128.271 24C128.255 23.984 128.235 23.972 128.211 23.964C128.187 23.948 128.159 23.928 128.127 23.904L127.875 23.76C127.635 23.624 127.423 23.436 127.239 23.196C127.055 22.948 126.907 22.676 126.795 22.38C126.579 21.836 126.471 21.28 126.471 20.712C126.471 20.08 126.599 19.472 126.855 18.888C127.127 18.272 127.491 17.784 127.947 17.424C128.451 17.024 129.011 16.824 129.627 16.824C129.819 16.824 129.967 16.832 130.071 16.848C130.071 16.832 130.083 16.824 130.107 16.824H130.143C130.703 16.824 131.203 16.844 131.643 16.884C132.019 16.94 132.367 17.056 132.687 17.232C133.327 17.656 133.787 18.12 134.067 18.624C134.363 19.184 134.511 19.844 134.511 20.604C134.511 21.364 134.331 22.076 133.971 22.74L133.851 22.932C133.819 22.98 133.799 23.004 133.791 23.004L133.755 23.064L133.671 23.112C133.327 23.624 132.807 23.972 132.111 24.156C131.647 24.252 131.007 24.3 130.191 24.3ZM130.395 23.4C130.467 23.4 130.523 23.356 130.563 23.268C130.659 23.124 130.739 22.844 130.803 22.428C130.811 22.356 130.831 22.196 130.863 21.948C130.895 21.7 130.915 21.468 130.923 21.252C130.955 20.708 130.971 20.372 130.971 20.244V19.968V19.872C130.971 19.584 130.959 19.336 130.935 19.128C130.911 18.8 130.863 18.54 130.791 18.348C130.719 18.252 130.663 18.204 130.623 18.204C130.543 18.204 130.467 18.264 130.395 18.384C130.323 18.504 130.267 18.724 130.227 19.044L129.975 20.964V21.204V21.36C129.999 21.696 130.011 21.916 130.011 22.02L130.035 22.308L130.071 22.692C130.071 22.756 130.079 22.812 130.095 22.86L130.227 23.304C130.235 23.336 130.255 23.36 130.287 23.376C130.327 23.392 130.363 23.4 130.395 23.4ZM135.829 24.012C135.677 24.012 135.617 23.876 135.649 23.604C135.649 23.508 135.669 23.4 135.709 23.28C135.709 23.224 135.713 23.18 135.721 23.148C135.729 23.108 135.733 23.076 135.733 23.052C135.917 22.18 136.121 21.32 136.345 20.472L137.161 17.28C137.161 17.264 137.173 17.244 137.197 17.22C137.221 17.196 137.245 17.176 137.269 17.16H137.353C137.449 17.16 137.525 17.148 137.581 17.124C137.629 17.116 137.713 17.112 137.833 17.112C138.025 17.112 138.169 17.116 138.265 17.124C138.409 17.148 138.557 17.16 138.709 17.16L139.333 17.148C139.397 17.132 139.473 17.124 139.561 17.124L140.089 17.1H140.485C140.637 17.1 140.785 17.104 140.929 17.112H141.265C141.345 17.12 141.461 17.124 141.613 17.124H142.069C142.093 17.124 142.117 17.128 142.141 17.136C142.165 17.144 142.185 17.152 142.201 17.16C142.233 17.176 142.273 17.184 142.321 17.184H142.429C142.485 17.224 142.513 17.264 142.513 17.304L143.365 20.472C143.629 21.488 143.837 22.348 143.989 23.052C143.989 23.092 144.001 23.168 144.025 23.28C144.057 23.44 144.073 23.568 144.073 23.664C144.073 23.72 144.065 23.796 144.049 23.892C144.009 23.972 143.953 24.012 143.881 24.012H143.749C143.645 24.012 143.565 24.008 143.509 24H143.245H142.993H142.789C142.733 24 142.701 23.996 142.693 23.988H142.033L142.021 23.964C142.005 23.948 141.981 23.94 141.949 23.94L141.913 23.964C141.913 23.98 141.905 23.988 141.889 23.988H141.853H141.769C141.729 23.972 141.657 23.964 141.553 23.964C141.361 23.948 141.201 23.94 141.073 23.94C140.985 23.756 140.881 23.352 140.761 22.728C140.593 22.752 140.401 22.764 140.185 22.764H139.873H139.573C139.541 22.884 139.521 22.984 139.513 23.064C139.505 23.104 139.473 23.24 139.417 23.472C139.361 23.704 139.309 23.86 139.261 23.94L139.189 23.964C139.165 23.972 139.145 23.98 139.129 23.988C139.113 23.988 139.105 23.988 139.105 23.988H139.081C139.033 23.988 139.001 23.98 138.985 23.964C138.953 23.948 138.933 23.94 138.925 23.94L138.469 23.964H138.133C138.093 23.972 138.061 23.98 138.037 23.988C138.013 23.988 137.997 23.988 137.989 23.988H137.029H136.933C136.861 23.996 136.713 24 136.489 24H136.201C136.153 24.008 136.077 24.012 135.973 24.012H135.829ZM140.653 21.444C140.605 21.172 140.577 21.012 140.569 20.964L140.473 20.388C140.457 20.276 140.441 20.176 140.425 20.088C140.409 19.992 140.397 19.904 140.389 19.824C140.365 19.728 140.345 19.64 140.329 19.56C140.321 19.472 140.309 19.392 140.293 19.32C140.285 19.272 140.277 19.212 140.269 19.14C140.261 19.06 140.249 19.004 140.233 18.972L140.209 18.828C140.209 18.796 140.201 18.768 140.185 18.744L140.173 18.672C140.157 18.72 140.149 18.744 140.149 18.744V18.792V18.828C140.149 18.836 140.145 18.852 140.137 18.876C140.129 18.892 140.121 18.924 140.113 18.972C140.105 19.012 140.097 19.064 140.089 19.128C140.081 19.184 140.069 19.248 140.053 19.32L139.969 19.812L139.873 20.364L139.837 20.628C139.821 20.692 139.805 20.796 139.789 20.94C139.717 21.3 139.685 21.464 139.693 21.432H140.221C140.229 21.424 140.241 21.416 140.257 21.408C140.273 21.392 140.285 21.384 140.293 21.384H140.329C140.369 21.384 140.401 21.388 140.425 21.396C140.457 21.404 140.485 21.412 140.509 21.42C140.557 21.436 140.605 21.444 140.653 21.444ZM147.297 24C146.993 23.992 146.469 23.988 145.725 23.988C145.613 23.988 145.537 23.916 145.497 23.772C145.473 23.692 145.461 23.552 145.461 23.352C145.461 22.992 145.453 22.676 145.437 22.404C145.437 22.156 145.429 21.704 145.413 21.048L145.401 19.608V17.34C145.401 17.284 145.429 17.224 145.485 17.16C145.549 17.096 145.609 17.064 145.665 17.064L146.361 17.076C146.473 17.084 146.637 17.088 146.853 17.088C147.085 17.096 147.373 17.1 147.717 17.1C148.229 17.1 148.629 17.096 148.917 17.088C149.197 17.072 149.665 17.064 150.321 17.064C150.769 17.064 151.181 17.144 151.557 17.304C152.029 17.504 152.405 17.816 152.685 18.24C153.005 18.736 153.165 19.38 153.165 20.172C153.165 20.884 153.085 21.48 152.925 21.96C152.773 22.44 152.525 22.828 152.181 23.124C151.829 23.428 151.365 23.652 150.789 23.796C150.221 23.932 149.509 24 148.653 24H147.297ZM148.737 22.644C148.913 22.644 149.029 22.636 149.085 22.62C149.141 22.604 149.181 22.584 149.205 22.56C149.325 22.44 149.437 22.084 149.541 21.492C149.629 20.94 149.673 20.424 149.673 19.944V19.752C149.673 19.472 149.653 19.204 149.613 18.948C149.581 18.636 149.517 18.38 149.421 18.18C149.365 18.092 149.293 18.048 149.205 18.048C149.133 18.048 149.045 18.068 148.941 18.108L148.857 18.144C148.857 18.328 148.849 18.74 148.833 19.38L148.821 20.124C148.821 20.284 148.817 20.408 148.809 20.496L148.797 20.868L148.737 22.644ZM161.046 24.3C160.982 24.3 160.894 24.292 160.782 24.276C160.726 24.26 160.638 24.252 160.518 24.252C160.214 24.252 159.838 24.184 159.39 24.048H159.306C159.25 24.048 159.19 24.032 159.126 24C159.11 23.984 159.09 23.972 159.066 23.964C159.042 23.948 159.014 23.928 158.982 23.904L158.73 23.76C158.49 23.624 158.278 23.436 158.094 23.196C157.91 22.948 157.762 22.676 157.65 22.38C157.434 21.836 157.326 21.28 157.326 20.712C157.326 20.08 157.454 19.472 157.71 18.888C157.982 18.272 158.346 17.784 158.802 17.424C159.306 17.024 159.866 16.824 160.482 16.824C160.674 16.824 160.822 16.832 160.926 16.848C160.926 16.832 160.938 16.824 160.962 16.824H160.998C161.558 16.824 162.058 16.844 162.498 16.884C162.874 16.94 163.222 17.056 163.542 17.232C164.182 17.656 164.642 18.12 164.922 18.624C165.218 19.184 165.366 19.844 165.366 20.604C165.366 21.364 165.186 22.076 164.826 22.74L164.706 22.932C164.674 22.98 164.654 23.004 164.646 23.004L164.61 23.064L164.526 23.112C164.182 23.624 163.662 23.972 162.966 24.156C162.502 24.252 161.862 24.3 161.046 24.3ZM161.25 23.4C161.322 23.4 161.378 23.356 161.418 23.268C161.514 23.124 161.594 22.844 161.658 22.428C161.666 22.356 161.686 22.196 161.718 21.948C161.75 21.7 161.77 21.468 161.778 21.252C161.81 20.708 161.826 20.372 161.826 20.244V19.968V19.872C161.826 19.584 161.814 19.336 161.79 19.128C161.766 18.8 161.718 18.54 161.646 18.348C161.574 18.252 161.518 18.204 161.478 18.204C161.398 18.204 161.322 18.264 161.25 18.384C161.178 18.504 161.122 18.724 161.082 19.044L160.83 20.964V21.204V21.36C160.854 21.696 160.866 21.916 160.866 22.02L160.89 22.308L160.926 22.692C160.926 22.756 160.934 22.812 160.95 22.86L161.082 23.304C161.09 23.336 161.11 23.36 161.142 23.376C161.182 23.392 161.218 23.4 161.25 23.4ZM167.657 24.036H167.465H167.285H167.189L166.721 23.904L166.697 23.832C166.689 23.832 166.685 23.792 166.685 23.712C166.685 23.608 166.681 23.524 166.673 23.46L166.661 23.004C166.653 22.908 166.649 22.756 166.649 22.548C166.649 22.348 166.645 22.2 166.637 22.104V21.744C166.589 21.24 166.565 20.72 166.565 20.184V20.088V19.908C166.565 19.812 166.569 19.744 166.577 19.704V19.608V19.524C166.569 19.5 166.565 19.46 166.565 19.404V19.272V19.2V19.08V18.888C166.565 18.792 166.569 18.724 166.577 18.684V18.564L166.589 18.504V18.348C166.597 18.268 166.601 18.16 166.601 18.024C166.601 17.92 166.597 17.828 166.589 17.748L166.577 17.472L166.565 17.424C166.541 17.408 166.541 17.396 166.565 17.388C166.597 17.26 166.697 17.168 166.865 17.112C166.945 17.08 167.077 17.064 167.261 17.064C167.397 17.064 167.753 17.052 168.329 17.028C168.617 17.012 168.797 17.004 168.869 17.004C168.989 16.996 169.133 16.992 169.301 16.992C169.381 17 169.437 17.016 169.469 17.04C169.501 17.056 169.529 17.088 169.553 17.136C169.585 17.184 169.609 17.22 169.625 17.244L169.865 17.592C169.857 17.584 169.957 17.728 170.165 18.024C170.357 18.336 170.589 18.688 170.861 19.08C170.901 19.144 170.949 19.216 171.005 19.296C171.061 19.376 171.121 19.468 171.185 19.572V19.152C171.193 19.04 171.197 18.88 171.197 18.672C171.197 18.4 171.205 18.096 171.221 17.76C171.221 17.696 171.225 17.64 171.233 17.592C171.241 17.536 171.245 17.492 171.245 17.46C171.245 17.38 171.249 17.34 171.257 17.34C171.289 17.292 171.345 17.24 171.425 17.184C171.521 17.12 171.621 17.092 171.725 17.1H172.325H172.445C172.565 17.1 172.665 17.104 172.745 17.112H173.105C173.185 17.12 173.305 17.124 173.465 17.124H173.729H173.849C174.009 17.124 174.129 17.152 174.209 17.208C174.257 17.24 174.289 17.284 174.305 17.34C174.321 17.388 174.329 17.464 174.329 17.568C174.329 17.672 174.325 17.76 174.317 17.832C174.309 17.912 174.305 18.008 174.305 18.12V18.204C174.313 18.228 174.317 18.264 174.317 18.312V18.624L174.305 20.004V21.36V21.684C174.305 22.548 174.297 23.096 174.281 23.328L174.245 23.724C174.205 23.908 174.149 24.004 174.077 24.012C174.061 24.012 174.037 24.016 174.005 24.024C173.981 24.032 173.953 24.036 173.921 24.036C173.633 24.036 173.421 24.028 173.285 24.012H172.661H172.037H171.881C171.857 24.02 171.825 24.024 171.785 24.024C171.689 24.024 171.589 24.004 171.485 23.964C171.421 23.948 171.353 23.904 171.281 23.832L170.225 22.344C170.185 22.288 170.109 22.196 169.997 22.068L169.841 21.924C169.801 21.884 169.769 21.864 169.745 21.864C169.721 21.864 169.701 21.876 169.685 21.9C169.669 21.916 169.661 21.932 169.661 21.948V22.152C169.653 22.216 169.649 22.316 169.649 22.452V22.8C169.641 22.888 169.637 23.008 169.637 23.16V23.448V23.628C169.629 23.644 169.625 23.668 169.625 23.7C169.625 23.708 169.613 23.772 169.589 23.892C169.573 23.924 169.561 23.944 169.553 23.952C169.545 23.96 169.517 23.964 169.469 23.964C169.453 23.956 169.437 23.952 169.421 23.952C169.413 23.952 169.405 23.952 169.397 23.952C168.765 24.008 168.241 24.036 167.825 24.036H167.657ZM182.303 24.036H181.751H181.127H180.335C180.263 23.924 180.215 23.72 180.191 23.424C180.159 23.16 180.143 22.776 180.143 22.272L180.155 20.952C180.163 20.632 180.167 20.124 180.167 19.428L180.131 19.392H178.943C178.767 19.392 178.651 19.192 178.595 18.792C178.563 18.576 178.547 18.26 178.547 17.844V17.688C178.563 17.632 178.571 17.544 178.571 17.424V17.184L178.583 17.088L178.631 17.04L178.847 17.052H179.087C179.439 17.052 179.707 17.048 179.891 17.04H180.671H180.887H181.295H181.811H182.327C182.431 17.048 182.579 17.052 182.771 17.052H183.071C183.103 17.036 183.155 17.028 183.227 17.028C183.283 17.012 183.335 17.004 183.383 17.004C183.535 17.004 183.651 17.012 183.731 17.028C183.891 17.044 184.011 17.052 184.091 17.052L184.403 17.04H184.871C185.111 17.04 185.275 17.044 185.363 17.052L185.531 17.064C185.539 17.072 185.551 17.084 185.567 17.1C185.583 17.108 185.591 17.116 185.591 17.124V19.164C185.591 19.212 185.563 19.264 185.507 19.32C185.459 19.376 185.411 19.412 185.363 19.428C185.099 19.372 184.755 19.344 184.331 19.344H183.875C183.755 19.344 183.675 19.496 183.635 19.8C183.619 19.888 183.611 20.016 183.611 20.184V20.544C183.611 20.704 183.615 20.824 183.623 20.904V21.24C183.623 21.568 183.607 21.872 183.575 22.152C183.559 22.36 183.551 22.512 183.551 22.608C183.535 22.704 183.527 22.836 183.527 23.004C183.527 23.244 183.519 23.444 183.503 23.604C183.495 23.852 183.403 23.984 183.227 24C183.035 24.024 182.923 24.036 182.891 24.036H182.303ZM188.451 24.036C188.115 24.036 187.831 24.028 187.599 24.012C187.375 23.996 187.163 23.96 186.963 23.904C186.931 23.904 186.907 23.888 186.891 23.856C186.875 23.816 186.863 23.788 186.855 23.772C186.847 23.732 186.843 23.684 186.843 23.628C186.795 22.82 186.751 22.192 186.711 21.744C186.671 21.216 186.651 20.556 186.651 19.764V19.464L186.663 19.008L186.687 18.468L186.699 18.168C186.707 18.112 186.711 18.024 186.711 17.904V17.448C186.711 17.296 186.715 17.196 186.723 17.148C186.723 17.124 186.739 17.112 186.771 17.112C186.843 17.112 186.907 17.096 186.963 17.064C186.987 17.064 187.023 17.064 187.071 17.064C187.127 17.056 187.175 17.056 187.215 17.064H187.611H188.247H188.595H189.267C189.411 17.064 189.519 17.068 189.591 17.076L189.951 17.088C190.039 17.088 190.103 17.096 190.143 17.112C190.191 17.12 190.227 17.144 190.251 17.184C190.275 17.208 190.291 17.256 190.299 17.328C190.307 17.4 190.311 17.48 190.311 17.568V17.664V17.832C190.311 17.912 190.315 17.968 190.323 18V18.12V18.204C190.331 18.236 190.335 18.276 190.335 18.324L190.323 18.684C190.315 18.764 190.311 18.88 190.311 19.032C190.311 19.12 190.319 19.18 190.335 19.212C190.359 19.252 190.395 19.272 190.443 19.272C190.459 19.272 190.499 19.264 190.563 19.248C190.587 19.248 190.619 19.244 190.659 19.236C190.699 19.228 190.743 19.224 190.791 19.224H190.911C190.951 19.24 191.023 19.248 191.127 19.248C191.167 19.248 191.203 19.244 191.235 19.236C191.275 19.228 191.311 19.224 191.343 19.224C191.415 19.224 191.451 19.216 191.451 19.2V18.708V18.528C191.451 18.408 191.455 18.312 191.463 18.24V17.904C191.471 17.824 191.475 17.712 191.475 17.568C191.475 17.432 191.479 17.34 191.487 17.292V17.112H191.523H191.583C191.631 17.112 191.655 17.096 191.655 17.064H192.231C192.471 17.064 192.651 17.072 192.771 17.088C192.979 17.104 193.147 17.112 193.275 17.112L194.031 17.088C194.151 17.072 194.299 17.064 194.475 17.064H194.787C194.947 17.064 195.055 17.08 195.111 17.112C195.167 17.144 195.195 17.224 195.195 17.352V18.3C195.195 18.46 195.191 18.588 195.183 18.684L195.171 18.972C195.171 19.1 195.163 19.292 195.147 19.548L195.135 19.752L195.147 19.944L195.027 23.748C195.027 23.772 195.003 23.824 194.955 23.904C194.907 23.968 194.859 24 194.811 24H193.971C193.659 24 193.351 23.988 193.047 23.964C192.847 23.956 192.547 23.952 192.147 23.952H191.943C191.831 23.952 191.755 23.912 191.715 23.832C191.683 23.728 191.663 23.592 191.655 23.424L191.535 21.444H191.415C191.223 21.444 191.083 21.44 190.995 21.432C190.915 21.416 190.875 21.408 190.875 21.408H190.383C190.351 21.408 190.331 21.42 190.323 21.444C190.315 21.468 190.311 21.496 190.311 21.528C190.311 21.552 190.311 21.572 190.311 21.588V23.58V23.808C190.311 23.832 190.307 23.856 190.299 23.88C190.291 23.896 190.287 23.912 190.287 23.928C190.279 23.952 190.259 23.964 190.227 23.964C190.219 23.964 190.207 23.968 190.191 23.976C190.175 23.984 190.155 23.992 190.131 24C189.835 24 189.555 24.012 189.291 24.036H188.451ZM197.044 23.952C197.028 23.952 197.016 23.936 197.008 23.904C196.952 23.832 196.912 23.744 196.888 23.64C196.864 23.6 196.844 23.548 196.828 23.484C196.756 23.34 196.704 23.14 196.672 22.884C196.64 22.516 196.624 22.224 196.624 22.008C196.616 21.912 196.612 21.78 196.612 21.612V21.324C196.612 21.084 196.608 20.896 196.6 20.76C196.592 20.616 196.588 20.332 196.588 19.908C196.588 18.772 196.612 17.896 196.66 17.28C196.66 17.184 196.796 17.112 197.068 17.064H197.428H197.728C198.184 17.064 198.524 17.072 198.748 17.088C199.084 17.112 199.424 17.124 199.768 17.124C199.848 17.124 199.908 17.12 199.948 17.112H200.128L200.188 17.16C200.452 17.104 200.724 17.068 201.004 17.052C201.284 17.036 201.624 17.028 202.024 17.028C202.04 17.028 202.06 17.04 202.084 17.064H202.468C202.532 17.064 202.58 17.1 202.612 17.172C202.652 17.244 202.684 17.348 202.708 17.484C202.74 17.588 202.764 17.716 202.78 17.868C202.812 18.068 202.84 18.2 202.864 18.264C202.864 18.488 202.824 18.6 202.744 18.6C202.736 18.6 202.724 18.588 202.708 18.564L202.66 18.552C202.62 18.544 202.576 18.548 202.528 18.564C202.48 18.588 202.428 18.6 202.372 18.6C202.324 18.6 202.284 18.588 202.252 18.564C202.236 18.556 202.2 18.552 202.144 18.552C202.072 18.552 201.988 18.564 201.892 18.588C201.86 18.596 201.796 18.608 201.7 18.624C201.612 18.64 201.508 18.648 201.388 18.648C201.044 18.648 200.796 18.656 200.644 18.672C200.556 18.68 200.472 18.704 200.392 18.744V18.72C200.36 18.72 200.332 18.76 200.308 18.84C200.252 18.976 200.216 19.164 200.2 19.404C200.192 19.476 200.188 19.556 200.188 19.644C200.188 19.732 200.2 19.792 200.224 19.824C200.256 19.856 200.304 19.872 200.368 19.872C200.416 19.872 200.456 19.856 200.488 19.824C200.504 19.824 200.524 19.828 200.548 19.836C200.572 19.844 200.592 19.856 200.608 19.872H201.628C201.636 19.856 201.648 19.844 201.664 19.836C201.68 19.828 201.696 19.824 201.712 19.824C201.792 19.824 201.852 19.836 201.892 19.86C201.94 19.884 202.036 19.908 202.18 19.932C202.26 19.932 202.316 19.956 202.348 20.004C202.388 20.06 202.408 20.112 202.408 20.16L202.66 20.952C202.684 21.08 202.564 21.164 202.3 21.204C202.148 21.236 201.856 21.252 201.424 21.252H200.908H200.548C200.436 21.252 200.352 21.26 200.296 21.276C200.24 21.284 200.204 21.312 200.188 21.36C200.156 21.4 200.14 21.464 200.14 21.552V21.6C200.14 21.64 200.144 21.668 200.152 21.684L200.14 21.948C200.132 22.004 200.128 22.088 200.128 22.2V22.32V22.428V22.5C200.488 22.5 200.856 22.488 201.232 22.464C201.6 22.44 201.964 22.428 202.324 22.428C202.348 22.428 202.368 22.448 202.384 22.488C202.4 22.52 202.408 22.56 202.408 22.608C202.424 22.656 202.432 22.708 202.432 22.764C202.448 22.884 202.472 22.996 202.504 23.1L202.588 23.448V23.688V23.724V23.82L202.492 23.904H202.408H202.372C202.284 23.904 202.228 23.9 202.204 23.892C202.18 23.876 202.152 23.868 202.12 23.868C202.104 23.876 202.08 23.888 202.048 23.904C202.016 23.92 201.988 23.936 201.964 23.952V23.892L201.82 23.904H201.64C201.608 23.904 201.584 23.896 201.568 23.88L201.472 23.868C201.176 23.868 200.968 23.896 200.848 23.952H197.044Z" fill="#F9B119"/>
<path d="M76.2585 45.98C76.0318 45.98 75.8852 45.8333 75.8185 45.54C75.7518 45.3933 75.7185 45.1267 75.7185 44.74C75.7185 43.58 75.7052 42.5467 75.6785 41.64C75.6385 40.3333 75.6185 38.9533 75.6185 37.5V33.1C75.6185 32.98 75.6718 32.8667 75.7785 32.76C75.8985 32.64 76.0185 32.58 76.1385 32.58L78.4385 32.6C78.8652 32.6133 79.4252 32.62 80.1185 32.62C81.1185 32.62 81.8918 32.6133 82.4385 32.6L83.1785 32.58C83.9785 32.5533 84.6385 32.54 85.1585 32.54C85.9985 32.54 86.7985 32.66 87.5585 32.9C88.4518 33.1667 89.1785 33.6267 89.7385 34.28C90.3652 34.9867 90.6785 35.94 90.6785 37.14C90.6785 39.1667 90.1652 40.6333 89.1385 41.54C88.2318 42.3933 86.8785 42.82 85.0785 42.82H82.3385C82.3518 43.1267 82.3585 43.4533 82.3585 43.8C82.3585 43.92 82.3518 44.0667 82.3385 44.24C82.3385 44.4 82.3385 44.62 82.3385 44.9C82.3385 45.34 82.2452 45.62 82.0585 45.74C81.9118 45.86 81.6385 45.92 81.2385 45.92C80.6518 45.92 80.2452 45.9267 80.0185 45.94C79.0985 45.94 78.3652 45.9533 77.8185 45.98H76.2585ZM83.4185 40.42C83.6985 40.42 83.9052 40.1533 84.0385 39.62C84.1452 39.26 84.2252 38.7267 84.2785 38.02C84.3052 37.6333 84.3185 37.2 84.3185 36.72V36.5C84.3185 36.2867 84.2852 35.9667 84.2185 35.54C84.1652 35.3 84.1052 35.1133 84.0385 34.98C83.9718 34.8333 83.8852 34.7133 83.7785 34.62C83.6718 34.5 83.5518 34.44 83.4185 34.44C83.3518 34.44 83.2918 34.4667 83.2385 34.52C83.1985 34.5733 83.1585 34.64 83.1185 34.72C82.9718 34.96 82.8385 35.4933 82.7185 36.32C82.6785 36.56 82.6452 36.92 82.6185 37.4C82.5518 38.1333 82.5185 39.1133 82.5185 40.34C82.5185 40.34 82.5252 40.3467 82.5385 40.36C82.5518 40.3733 82.5785 40.3867 82.6185 40.4L82.8585 40.42H83.4185ZM97.9158 46.1L97.6558 46.06H97.3358C97.1358 46.0333 96.7892 46.0067 96.2958 45.98C96.1892 45.98 96.0892 45.9733 95.9958 45.96C95.9025 45.9467 95.8158 45.94 95.7358 45.94H95.2958L95.0958 45.92C94.6692 45.92 94.3558 45.9267 94.1558 45.94C93.9558 45.9667 93.6425 45.98 93.2158 45.98H92.8158L92.4558 46L92.3958 45.92V45.7V45.2V44.68V44.34V42.98C92.3958 42.66 92.3825 42.4267 92.3558 42.28V41.8L92.4358 40.94C92.4758 40.4067 92.4958 39.64 92.4958 38.64C92.5225 37.0267 92.6225 35.86 92.7958 35.14C92.8892 34.7533 93.0425 34.5067 93.2558 34.4L95.5958 34.42C95.7958 34.4333 96.0825 34.44 96.4558 34.44H97.4158C97.4825 34.4533 97.6025 34.4667 97.7758 34.48C97.9625 34.4933 98.1025 34.5267 98.1958 34.58C98.2758 34.6467 98.3292 34.74 98.3558 34.86C98.3958 34.9667 98.4158 35.1267 98.4158 35.34L98.3958 35.5V35.74C98.3558 35.8333 98.3358 35.9267 98.3358 36.02C98.3092 36.1267 98.3025 36.2333 98.3158 36.34V36.64C98.3292 36.7067 98.3358 36.8 98.3358 36.92L98.3558 37.08V37.54L98.3758 38.18C98.3892 38.3133 98.3958 38.5 98.3958 38.74C98.4225 38.9267 98.4558 39.0533 98.4958 39.12C98.4958 39.2133 98.4892 39.3133 98.4758 39.42C98.4625 39.5267 98.4558 39.6333 98.4558 39.74C98.4425 39.9 98.4358 40.14 98.4358 40.46C98.4358 40.7667 98.4425 40.9933 98.4558 41.14C98.4558 41.3533 98.4892 41.5733 98.5558 41.8C98.6892 41.8533 98.8425 41.88 99.0158 41.88C99.4558 41.88 99.9092 41.8733 100.376 41.86C100.856 41.8467 101.283 41.8067 101.656 41.74C101.736 41.7533 101.809 41.8067 101.876 41.9C101.956 41.9933 101.996 42.0733 101.996 42.14L101.856 45.58C101.829 45.66 101.776 45.7133 101.696 45.74C101.469 45.8467 101.156 45.9133 100.756 45.94C100.223 46.02 99.8692 46.06 99.6958 46.06H99.3558C99.0892 46.06 98.8892 46.0667 98.7558 46.08C98.4892 46.1067 98.3025 46.12 98.1958 46.12L97.9158 46.1ZM103.904 46.02C103.651 46.02 103.551 45.7933 103.604 45.34C103.604 45.18 103.638 45 103.704 44.8C103.704 44.7067 103.711 44.6333 103.724 44.58C103.738 44.5133 103.744 44.46 103.744 44.42C104.051 42.9667 104.391 41.5333 104.764 40.12L106.124 34.8C106.124 34.7733 106.144 34.74 106.184 34.7C106.224 34.66 106.264 34.6267 106.304 34.6H106.444C106.604 34.6 106.731 34.58 106.824 34.54C106.904 34.5267 107.044 34.52 107.244 34.52C107.564 34.52 107.804 34.5267 107.964 34.54C108.204 34.58 108.451 34.6 108.704 34.6L109.744 34.58C109.851 34.5533 109.978 34.54 110.124 34.54L111.004 34.5H111.664C111.918 34.5 112.164 34.5067 112.404 34.52H112.964C113.098 34.5333 113.291 34.54 113.544 34.54H114.304C114.344 34.54 114.384 34.5467 114.424 34.56C114.464 34.5733 114.498 34.5867 114.524 34.6C114.578 34.6267 114.644 34.64 114.724 34.64H114.904C114.998 34.7067 115.044 34.7733 115.044 34.84L116.464 40.12C116.904 41.8133 117.251 43.2467 117.504 44.42C117.504 44.4867 117.524 44.6133 117.564 44.8C117.618 45.0667 117.644 45.28 117.644 45.44C117.644 45.5333 117.631 45.66 117.604 45.82C117.538 45.9533 117.444 46.02 117.324 46.02H117.104C116.931 46.02 116.798 46.0133 116.704 46H116.264H115.844H115.504C115.411 46 115.358 45.9933 115.344 45.98H114.244L114.224 45.94C114.198 45.9133 114.158 45.9 114.104 45.9L114.044 45.94C114.044 45.9667 114.031 45.98 114.004 45.98H113.944H113.804C113.738 45.9533 113.618 45.94 113.444 45.94C113.124 45.9133 112.858 45.9 112.644 45.9C112.498 45.5933 112.324 44.92 112.124 43.88C111.844 43.92 111.524 43.94 111.164 43.94H110.644H110.144C110.091 44.14 110.058 44.3067 110.044 44.44C110.031 44.5067 109.978 44.7333 109.884 45.12C109.791 45.5067 109.704 45.7667 109.624 45.9L109.504 45.94C109.464 45.9533 109.431 45.9667 109.404 45.98C109.378 45.98 109.364 45.98 109.364 45.98H109.324C109.244 45.98 109.191 45.9667 109.164 45.94C109.111 45.9133 109.078 45.9 109.064 45.9L108.304 45.94H107.744C107.678 45.9533 107.624 45.9667 107.584 45.98C107.544 45.98 107.518 45.98 107.504 45.98H105.904H105.744C105.624 45.9933 105.378 46 105.004 46H104.524C104.444 46.0133 104.318 46.02 104.144 46.02H103.904ZM111.944 41.74C111.864 41.2867 111.818 41.02 111.804 40.94L111.644 39.98C111.618 39.7933 111.591 39.6267 111.564 39.48C111.538 39.32 111.518 39.1733 111.504 39.04C111.464 38.88 111.431 38.7333 111.404 38.6C111.391 38.4533 111.371 38.32 111.344 38.2C111.331 38.12 111.318 38.02 111.304 37.9C111.291 37.7667 111.271 37.6733 111.244 37.62L111.204 37.38C111.204 37.3267 111.191 37.28 111.164 37.24L111.144 37.12C111.118 37.2 111.104 37.24 111.104 37.24V37.32V37.38C111.104 37.3933 111.098 37.42 111.084 37.46C111.071 37.4867 111.058 37.54 111.044 37.62C111.031 37.6867 111.018 37.7733 111.004 37.88C110.991 37.9733 110.971 38.08 110.944 38.2L110.804 39.02L110.644 39.94L110.584 40.38C110.558 40.4867 110.531 40.66 110.504 40.9C110.384 41.5 110.331 41.7733 110.344 41.72H111.224C111.238 41.7067 111.258 41.6933 111.284 41.68C111.311 41.6533 111.331 41.64 111.344 41.64H111.404C111.471 41.64 111.524 41.6467 111.564 41.66C111.618 41.6733 111.664 41.6867 111.704 41.7C111.784 41.7267 111.864 41.74 111.944 41.74ZM126.557 48.48C126.477 48.48 126.277 48.4267 125.957 48.32C125.903 48.3067 125.823 48.2733 125.717 48.22C125.623 48.18 125.537 48.16 125.457 48.16C125.403 48.16 125.31 48.1267 125.177 48.06C125.083 47.9933 124.997 47.96 124.917 47.96L124.677 47.9C124.597 47.9 124.543 47.8933 124.517 47.88C124.477 47.88 124.457 47.8733 124.457 47.86C124.03 47.7667 123.597 47.6133 123.157 47.4L121.857 46.86C121.763 46.82 121.717 46.7533 121.717 46.66C121.717 46.58 121.737 46.5 121.777 46.42L122.317 45.48C122.45 45.2267 122.637 44.9267 122.877 44.58C122.97 44.4867 123.063 44.32 123.157 44.08C123.237 43.8933 123.277 43.78 123.277 43.74C123.077 43.3533 122.823 42.94 122.517 42.5C122.21 41.9667 121.963 41.6133 121.777 41.44C121.75 41.3733 121.69 41.2667 121.597 41.12C121.383 40.7467 121.283 40.5733 121.297 40.6L120.957 40C120.863 39.8667 120.75 39.6667 120.617 39.4C120.537 39.2667 120.45 39.1 120.357 38.9C120.237 38.7 120.17 38.58 120.157 38.54C120.05 38.42 119.87 38.1 119.617 37.58C119.377 37.0467 119.257 36.7267 119.257 36.62C119.257 36.5667 119.31 36.5 119.417 36.42C119.523 36.3267 119.643 36.2333 119.777 36.14C120.203 35.94 120.483 35.82 120.617 35.78C120.79 35.7 120.937 35.6333 121.057 35.58C121.19 35.5267 121.297 35.48 121.377 35.44C121.683 35.2933 122.11 35.1133 122.657 34.9C122.763 34.8467 123.017 34.74 123.417 34.58C123.563 34.54 123.697 34.52 123.817 34.52C123.897 34.52 123.963 34.5467 124.017 34.6C124.07 34.6267 124.15 34.7333 124.257 34.92L124.957 36.44C125.357 37.28 125.637 37.8467 125.797 38.14C125.823 38.18 125.85 38.2333 125.877 38.3C125.903 38.3533 125.93 38.3933 125.957 38.42C126.037 38.5267 126.11 38.58 126.177 38.58C126.217 38.58 126.25 38.56 126.277 38.52C126.317 38.48 126.343 38.4467 126.357 38.42L127.717 34.84C127.77 34.6667 127.883 34.5333 128.057 34.44C128.203 34.3467 128.383 34.3133 128.597 34.34C129.463 34.62 130.103 34.8467 130.517 35.02C131.33 35.3533 131.93 35.6467 132.317 35.9C132.45 35.9667 132.537 36.0533 132.577 36.16C132.63 36.2533 132.637 36.3467 132.597 36.44C132.583 36.56 132.55 36.66 132.497 36.74L132.377 36.98L129.177 43.92L129.017 44.32L127.057 48.06C126.963 48.22 126.877 48.3267 126.797 48.38C126.73 48.4467 126.65 48.48 126.557 48.48ZM145.241 46.48C144.294 46.48 143.341 46.3733 142.381 46.16C141.434 45.9333 140.654 45.6267 140.041 45.24C139.881 44.76 139.761 44.28 139.681 43.8C139.601 43.32 139.501 42.6333 139.381 41.74V41.68C139.408 41.52 139.494 41.4 139.641 41.32C140.148 41.6267 140.634 41.86 141.101 42.02C141.568 42.1667 142.081 42.24 142.641 42.24H143.121L143.441 42.26C143.748 42.26 144.061 42.2133 144.381 42.12C144.554 42.0533 144.674 41.9267 144.741 41.74L143.681 41.22C142.868 40.8333 142.134 40.42 141.481 39.98C140.801 39.4867 140.314 38.86 140.021 38.1C139.874 37.6867 139.801 37.2333 139.801 36.74C139.801 35.54 140.168 34.5733 140.901 33.84C141.541 33.1867 142.408 32.72 143.501 32.44C144.448 32.2133 145.488 32.1 146.621 32.1C147.288 32.1 148.208 32.1733 149.381 32.32C149.501 32.3467 149.668 32.3733 149.881 32.4L150.481 32.52C150.934 32.6 151.268 32.64 151.481 32.64C151.494 32.64 151.514 32.66 151.541 32.7C151.581 32.74 151.614 32.7733 151.641 32.8C151.694 32.8933 151.748 32.94 151.801 32.94H151.821H151.841L151.881 33.36C151.881 33.56 151.901 33.7733 151.941 34C151.981 34.3333 152.001 34.6933 152.001 35.08C152.001 35.4133 151.981 35.6533 151.941 35.8C151.874 36.0667 151.754 36.26 151.581 36.38L149.721 36.14H149.521H149.241C148.788 36.14 148.268 36.1867 147.681 36.28L147.021 36.42C146.861 36.4467 146.781 36.4733 146.781 36.5C146.781 36.82 146.988 37.12 147.401 37.4C147.601 37.5067 147.801 37.6 148.001 37.68C148.201 37.7467 148.328 37.7933 148.381 37.82C149.368 38.1 150.221 38.5867 150.941 39.28C151.274 39.6 151.534 39.94 151.721 40.3C151.908 40.66 152.001 41.0067 152.001 41.34C152.001 41.54 151.974 41.7533 151.921 41.98C151.828 42.98 151.448 43.8467 150.781 44.58C150.128 45.2333 149.308 45.7133 148.321 46.02C147.468 46.3267 146.441 46.48 145.241 46.48ZM159.915 46.06H158.995H157.955H156.635C156.515 45.8733 156.435 45.5333 156.395 45.04C156.342 44.6 156.315 43.96 156.315 43.12L156.335 40.92C156.348 40.3867 156.355 39.54 156.355 38.38L156.295 38.32H154.315C154.022 38.32 153.828 37.9867 153.735 37.32C153.682 36.96 153.655 36.4333 153.655 35.74V35.48C153.682 35.3867 153.695 35.24 153.695 35.04V34.64L153.715 34.48L153.795 34.4L154.155 34.42H154.555C155.142 34.42 155.588 34.4133 155.895 34.4H157.195H157.555H158.235H159.095H159.955C160.128 34.4133 160.375 34.42 160.695 34.42H161.195C161.248 34.3933 161.335 34.38 161.455 34.38C161.548 34.3533 161.635 34.34 161.715 34.34C161.968 34.34 162.162 34.3533 162.295 34.38C162.562 34.4067 162.762 34.42 162.895 34.42L163.415 34.4H164.195C164.595 34.4 164.868 34.4067 165.015 34.42L165.295 34.44C165.308 34.4533 165.328 34.4733 165.355 34.5C165.382 34.5133 165.395 34.5267 165.395 34.54V37.94C165.395 38.02 165.348 38.1067 165.255 38.2C165.175 38.2933 165.095 38.3533 165.015 38.38C164.575 38.2867 164.002 38.24 163.295 38.24H162.535C162.335 38.24 162.202 38.4933 162.135 39C162.108 39.1467 162.095 39.36 162.095 39.64V40.24C162.095 40.5067 162.102 40.7067 162.115 40.84V41.4C162.115 41.9467 162.088 42.4533 162.035 42.92C162.008 43.2667 161.995 43.52 161.995 43.68C161.968 43.84 161.955 44.06 161.955 44.34C161.955 44.74 161.942 45.0733 161.915 45.34C161.902 45.7533 161.748 45.9733 161.455 46C161.135 46.04 160.948 46.06 160.895 46.06H159.915ZM173.061 46.5C172.955 46.5 172.808 46.4867 172.621 46.46C172.528 46.4333 172.381 46.42 172.181 46.42C171.675 46.42 171.048 46.3067 170.301 46.08H170.161C170.068 46.08 169.968 46.0533 169.861 46C169.835 45.9733 169.801 45.9533 169.761 45.94C169.721 45.9133 169.675 45.88 169.621 45.84L169.201 45.6C168.801 45.3733 168.448 45.06 168.141 44.66C167.835 44.2467 167.588 43.7933 167.401 43.3C167.041 42.3933 166.861 41.4667 166.861 40.52C166.861 39.4667 167.075 38.4533 167.501 37.48C167.955 36.4533 168.561 35.64 169.321 35.04C170.161 34.3733 171.095 34.04 172.121 34.04C172.441 34.04 172.688 34.0533 172.861 34.08C172.861 34.0533 172.881 34.04 172.921 34.04H172.981C173.915 34.04 174.748 34.0733 175.481 34.14C176.108 34.2333 176.688 34.4267 177.221 34.72C178.288 35.4267 179.055 36.2 179.521 37.04C180.015 37.9733 180.261 39.0733 180.261 40.34C180.261 41.6067 179.961 42.7933 179.361 43.9L179.161 44.22C179.108 44.3 179.075 44.34 179.061 44.34L179.001 44.44L178.861 44.52C178.288 45.3733 177.421 45.9533 176.261 46.26C175.488 46.42 174.421 46.5 173.061 46.5ZM173.401 45C173.521 45 173.615 44.9267 173.681 44.78C173.841 44.54 173.975 44.0733 174.081 43.38C174.095 43.26 174.128 42.9933 174.181 42.58C174.235 42.1667 174.268 41.78 174.281 41.42C174.335 40.5133 174.361 39.9533 174.361 39.74V39.28V39.12C174.361 38.64 174.341 38.2267 174.301 37.88C174.261 37.3333 174.181 36.9 174.061 36.58C173.941 36.42 173.848 36.34 173.781 36.34C173.648 36.34 173.521 36.44 173.401 36.64C173.281 36.84 173.188 37.2067 173.121 37.74L172.701 40.94V41.34V41.6C172.741 42.16 172.761 42.5267 172.761 42.7L172.801 43.18L172.861 43.82C172.861 43.9267 172.875 44.02 172.901 44.1L173.121 44.84C173.135 44.8933 173.168 44.9333 173.221 44.96C173.288 44.9867 173.348 45 173.401 45ZM191.499 46.22C190.912 45.6467 190.412 45.0667 189.999 44.48C189.706 44.0933 189.252 43.4067 188.639 42.42L188.299 41.88C188.286 41.8667 188.272 41.86 188.259 41.86C188.259 41.8467 188.259 41.84 188.259 41.84H188.159L188.079 41.88C188.066 42.0533 188.059 42.52 188.059 43.28C188.059 43.7733 188.032 44.3533 187.979 45.02L187.959 45.62C187.906 45.7667 187.872 45.84 187.859 45.84H187.719H187.659C186.192 45.9467 185.126 46 184.459 46H184.159H183.779C183.632 46 183.526 45.9933 183.459 45.98H183.319L182.699 45.78L182.659 45.64C182.632 45.64 182.612 45.6133 182.599 45.56C182.599 45.5067 182.599 45.4667 182.599 45.44C182.559 44.88 182.526 44.4733 182.499 44.22C182.446 43.5 182.412 42.9733 182.399 42.64C182.372 42.32 182.359 42.1133 182.359 42.02L182.259 40.92L182.239 40.32C182.226 40.2 182.219 40.0333 182.219 39.82V39.64C182.246 39.5733 182.259 39.4667 182.259 39.32V38.98C182.272 38.9267 182.279 38.8667 182.279 38.8L182.259 38.64V38.44C182.259 38.3467 182.246 38.2733 182.219 38.22V38.1L182.239 37.6C182.252 37.5067 182.259 37.3667 182.259 37.18C182.286 36.78 182.299 36.4 182.299 36.04V35.84C182.286 35.8 182.279 35.7133 182.279 35.58V35.3V35.1C182.239 35.06 182.219 35.02 182.219 34.98C182.219 34.7933 182.386 34.66 182.719 34.58C182.892 34.5267 183.139 34.5 183.459 34.5C186.579 34.5 188.912 34.6067 190.459 34.82C191.979 35.0333 193.046 35.4 193.659 35.92C193.926 36.1733 194.112 36.4733 194.219 36.82C194.339 37.1533 194.399 37.5533 194.399 38.02C194.399 38.7667 194.186 39.3933 193.759 39.9C193.479 40.18 193.152 40.4133 192.779 40.6C192.859 40.8 193.092 41.2 193.479 41.8C193.559 41.8933 193.632 41.9933 193.699 42.1C193.779 42.2067 193.872 42.32 193.979 42.44C194.232 42.7867 194.526 43.1667 194.859 43.58C194.872 43.6333 194.926 43.7467 195.019 43.92C195.086 43.9467 195.119 43.98 195.119 44.02C195.132 44.0467 195.126 44.0867 195.099 44.14C194.992 44.3 194.679 44.5333 194.159 44.84C194.092 44.9067 194.012 44.9733 193.919 45.04C193.652 45.2533 193.286 45.4733 192.819 45.7C192.392 45.9267 192.026 46.0867 191.719 46.18C191.599 46.2467 191.526 46.26 191.499 46.22ZM187.859 39.18C188.032 39.18 188.266 39.1467 188.559 39.08C188.839 39 189.039 38.92 189.159 38.84C189.359 38.72 189.532 38.5867 189.679 38.44C189.826 38.2667 189.899 38.0667 189.899 37.84C189.899 37.4667 189.786 37.1667 189.559 36.94C189.359 36.78 189.112 36.7 188.819 36.7H187.959C187.959 36.8733 187.946 37.1467 187.919 37.52L187.899 37.94C187.872 38.2067 187.859 38.62 187.859 39.18ZM198.019 45.92C197.992 45.92 197.972 45.8933 197.959 45.84C197.866 45.72 197.799 45.5733 197.759 45.4C197.719 45.3333 197.686 45.2467 197.659 45.14C197.539 44.9 197.452 44.5667 197.399 44.14C197.346 43.5267 197.319 43.04 197.319 42.68C197.306 42.52 197.299 42.3 197.299 42.02V41.54C197.299 41.14 197.292 40.8267 197.279 40.6C197.266 40.36 197.259 39.8867 197.259 39.18C197.259 37.2867 197.299 35.8267 197.379 34.8C197.379 34.64 197.606 34.52 198.059 34.44H198.659H199.159C199.919 34.44 200.486 34.4533 200.859 34.48C201.419 34.52 201.986 34.54 202.559 34.54C202.692 34.54 202.792 34.5333 202.859 34.52H203.159L203.259 34.6C203.699 34.5067 204.152 34.4467 204.619 34.42C205.086 34.3933 205.652 34.38 206.319 34.38C206.346 34.38 206.379 34.4 206.419 34.44H207.059C207.166 34.44 207.246 34.5 207.299 34.62C207.366 34.74 207.419 34.9133 207.459 35.14C207.512 35.3133 207.552 35.5267 207.579 35.78C207.632 36.1133 207.679 36.3333 207.719 36.44C207.719 36.8133 207.652 37 207.519 37C207.506 37 207.486 36.98 207.459 36.94L207.379 36.92C207.312 36.9067 207.239 36.9133 207.159 36.94C207.079 36.98 206.992 37 206.899 37C206.819 37 206.752 36.98 206.699 36.94C206.672 36.9267 206.612 36.92 206.519 36.92C206.399 36.92 206.259 36.94 206.099 36.98C206.046 36.9933 205.939 37.0133 205.779 37.04C205.632 37.0667 205.459 37.08 205.259 37.08C204.686 37.08 204.272 37.0933 204.019 37.12C203.872 37.1333 203.732 37.1733 203.599 37.24V37.2C203.546 37.2 203.499 37.2667 203.459 37.4C203.366 37.6267 203.306 37.94 203.279 38.34C203.266 38.46 203.259 38.5933 203.259 38.74C203.259 38.8867 203.279 38.9867 203.319 39.04C203.372 39.0933 203.452 39.12 203.559 39.12C203.639 39.12 203.706 39.0933 203.759 39.04C203.786 39.04 203.819 39.0467 203.859 39.06C203.899 39.0733 203.932 39.0933 203.959 39.12H205.659C205.672 39.0933 205.692 39.0733 205.719 39.06C205.746 39.0467 205.772 39.04 205.799 39.04C205.932 39.04 206.032 39.06 206.099 39.1C206.179 39.14 206.339 39.18 206.579 39.22C206.712 39.22 206.806 39.26 206.859 39.34C206.926 39.4333 206.959 39.52 206.959 39.6L207.379 40.92C207.419 41.1333 207.219 41.2733 206.779 41.34C206.526 41.3933 206.039 41.42 205.319 41.42H204.459H203.859C203.672 41.42 203.532 41.4333 203.439 41.46C203.346 41.4733 203.286 41.52 203.259 41.6C203.206 41.6667 203.179 41.7733 203.179 41.92V42C203.179 42.0667 203.186 42.1133 203.199 42.14L203.179 42.58C203.166 42.6733 203.159 42.8133 203.159 43V43.2V43.38V43.5C203.759 43.5 204.372 43.48 204.999 43.44C205.612 43.4 206.219 43.38 206.819 43.38C206.859 43.38 206.892 43.4133 206.919 43.48C206.946 43.5333 206.959 43.6 206.959 43.68C206.986 43.76 206.999 43.8467 206.999 43.94C207.026 44.14 207.066 44.3267 207.119 44.5L207.259 45.08V45.48V45.54V45.7L207.099 45.84H206.959H206.899C206.752 45.84 206.659 45.8333 206.619 45.82C206.579 45.7933 206.532 45.78 206.479 45.78C206.452 45.7933 206.412 45.8133 206.359 45.84C206.306 45.8667 206.259 45.8933 206.219 45.92V45.82L205.979 45.84H205.679C205.626 45.84 205.586 45.8267 205.559 45.8L205.399 45.78C204.906 45.78 204.559 45.8267 204.359 45.92H198.019Z" fill="#F9B119"/>
<rect x="1.5" y="1.5" width="253" height="60" rx="30" stroke="#F9B119" stroke-width="3"/>
<defs>
<radialGradient id="paint0_radial_72_108" cx="0" cy="0" r="1" gradientUnits="userSpaceOnUse" gradientTransform="translate(54.5491 31.5) rotate(75.3728) scale(12.9187 11.6479)">
<stop stop-color="#F6EE65"/>
<stop offset="0.568184" stop-color="#F9B119"/>
</radialGradient>
<clipPath id="clip0_72_108">
<rect width="22.9167" height="25" fill="white" transform="translate(46.5415 19)"/>
</clipPath>
</defs>
</svg>
